#define thermo1_width 18
#define thermo1_height 44
static unsigned char thermo1_bits[] = {
   0xc0, 0x0f, 0x00, 0x60, 0x18, 0x00, 0x30, 0x10, 0x00, 0x30, 0x10, 0x00,
   0x30, 0x10, 0x00, 0x30, 0x10, 0x00, 0x30, 0xf0, 0x03, 0x30, 0xf0, 0x03,
   0x30, 0x10, 0x00, 0x30, 0x10, 0x00, 0x30, 0x10, 0x00, 0x30, 0xf0, 0x03,
   0x30, 0xf0, 0x03, 0x30, 0x10, 0x00, 0x30, 0x10, 0x00, 0x30, 0xf0, 0x03,
   0x30, 0xf0, 0x03, 0x30, 0x10, 0x00, 0x30, 0x10, 0x00, 0x30, 0xf0, 0x03,
   0x30, 0xf0, 0x03, 0x30, 0x10, 0x00, 0x30, 0x10, 0x00, 0x30, 0xf0, 0x03,
   0x30, 0xf0, 0x03, 0x30, 0x10, 0x00, 0x30, 0x10, 0x00, 0x30, 0x10, 0x00,
   0x38, 0x30, 0x00, 0x1c, 0x60, 0x00, 0x0e, 0xc0, 0x00, 0x07, 0x82, 0x01,
   0x83, 0x03, 0x03, 0x83, 0x03, 0x03, 0xc3, 0x03, 0x03, 0xc3, 0x03, 0x03,
   0xc3, 0x03, 0x03, 0xc3, 0x03, 0x03, 0x87, 0x03, 0x03, 0x0e, 0x83, 0x01,
   0x1c, 0xc0, 0x00, 0x38, 0x60, 0x00, 0xf0, 0x3f, 0x00, 0xe0, 0x1f, 0x00 };
