#define thermo2_width 14
#define thermo2_height 33
static unsigned char thermo2_bits[] = {
   0x30, 0x00, 0xf0, 0x00, 0xf0, 0x03, 0xf0, 0x03, 0xf0, 0x03, 0xf0, 0x03,
   0xf0, 0x03, 0xf0, 0x03, 0xf0, 0x03, 0xf0, 0x03, 0xf0, 0x03, 0xf0, 0x03,
   0xf0, 0x03, 0xf0, 0x03, 0xf0, 0x03, 0xf0, 0x03, 0xf0, 0x03, 0xf0, 0x03,
   0xf0, 0x03, 0xf0, 0x03, 0xf8, 0x07, 0xfc, 0x0f, 0x7e, 0x1f, 0x1f, 0x3f,
   0x1f, 0x3f, 0x0f, 0x3f, 0x0f, 0x3f, 0x0f, 0x3f, 0x0f, 0x3f, 0x1e, 0x3f,
   0x3c, 0x1f, 0xf8, 0x0f, 0xf0, 0x07 };
