%TF.GenerationSoftware,KiCad,Pcbnew,10.0.4*%
%TF.CreationDate,2026-07-10T01:27:14+03:00*%
%TF.ProjectId,R8 COP Adapter,52382043-4f50-4204-9164-61707465722e,rev?*%
%TF.SameCoordinates,Original*%
%TF.FileFunction,Copper,L2,Bot*%
%TF.FilePolarity,Positive*%
%FSLAX46Y46*%
G04 Gerber Fmt 4.6, Leading zero omitted, Abs format (unit mm)*
G04 Created by KiCad (PCBNEW 10.0.4) date 2026-07-10 01:27:14*
%MOMM*%
%LPD*%
G01*
G04 APERTURE LIST*
G04 Aperture macros list*
%AMRoundRect*
0 Rectangle with rounded corners*
0 $1 Rounding radius*
0 $2 $3 $4 $5 $6 $7 $8 $9 X,Y pos of 4 corners*
0 Add a 4 corners polygon primitive as box body*
4,1,4,$2,$3,$4,$5,$6,$7,$8,$9,$2,$3,0*
0 Add four circle primitives for the rounded corners*
1,1,$1+$1,$2,$3*
1,1,$1+$1,$4,$5*
1,1,$1+$1,$6,$7*
1,1,$1+$1,$8,$9*
0 Add four rect primitives between the rounded corners*
20,1,$1+$1,$2,$3,$4,$5,0*
20,1,$1+$1,$4,$5,$6,$7,0*
20,1,$1+$1,$6,$7,$8,$9,0*
20,1,$1+$1,$8,$9,$2,$3,0*%
G04 Aperture macros list end*
%TA.AperFunction,ComponentPad*%
%ADD10R,2.100000X2.100000*%
%TD*%
%TA.AperFunction,ComponentPad*%
%ADD11C,2.100000*%
%TD*%
%TA.AperFunction,ComponentPad*%
%ADD12RoundRect,0.250000X0.550000X-0.550000X0.550000X0.550000X-0.550000X0.550000X-0.550000X-0.550000X0*%
%TD*%
%TA.AperFunction,ComponentPad*%
%ADD13C,1.600000*%
%TD*%
%TA.AperFunction,ComponentPad*%
%ADD14C,4.700000*%
%TD*%
%TA.AperFunction,ConnectorPad*%
%ADD15C,7.500000*%
%TD*%
%TA.AperFunction,ComponentPad*%
%ADD16RoundRect,0.250000X-0.550000X-0.550000X0.550000X-0.550000X0.550000X0.550000X-0.550000X0.550000X0*%
%TD*%
%TA.AperFunction,ViaPad*%
%ADD17C,0.600000*%
%TD*%
%TA.AperFunction,Conductor*%
%ADD18C,0.500000*%
%TD*%
%TA.AperFunction,Conductor*%
%ADD19C,0.700000*%
%TD*%
G04 APERTURE END LIST*
D10*
%TO.P,J3,1,1*%
%TO.N,+12V*%
X139340000Y-86915000D03*
D11*
%TO.P,J3,2,2*%
%TO.N,GND*%
X143480000Y-86915000D03*
%TO.P,J3,3,3*%
%TO.N,COP2_FIRE*%
X139340000Y-82775000D03*
%TO.P,J3,4,4*%
%TO.N,GND*%
X143480000Y-82775000D03*
%TD*%
D12*
%TO.P,C2,1*%
%TO.N,+5V*%
X122400000Y-108255113D03*
D13*
%TO.P,C2,2*%
%TO.N,GND*%
X122400000Y-106255113D03*
%TD*%
D14*
%TO.P,GND,1*%
%TO.N,GND*%
X104000000Y-99000000D03*
D15*
X104000000Y-99000000D03*
%TD*%
D10*
%TO.P,J5,1,1*%
%TO.N,+12V*%
X117290000Y-117700000D03*
D11*
%TO.P,J5,2,2*%
X117290000Y-113560000D03*
%TO.P,J5,3,3*%
%TO.N,IGN2_3*%
X113150000Y-117700000D03*
%TO.P,J5,4,4*%
%TO.N,IGN1_4*%
X113150000Y-113560000D03*
%TD*%
D10*
%TO.P,J4,1,1*%
%TO.N,+12V*%
X114140000Y-86915000D03*
D11*
%TO.P,J4,2,2*%
%TO.N,GND*%
X118280000Y-86915000D03*
%TO.P,J4,3,3*%
%TO.N,COP1_FIRE*%
X114140000Y-82775000D03*
%TO.P,J4,4,4*%
%TO.N,GND*%
X118280000Y-82775000D03*
%TD*%
D14*
%TO.P,GND,1*%
%TO.N,GND*%
X141500000Y-99000000D03*
D15*
X141500000Y-99000000D03*
%TD*%
D10*
%TO.P,J2,1,1*%
%TO.N,+12V*%
X126670000Y-86935000D03*
D11*
%TO.P,J2,2,2*%
%TO.N,GND*%
X130810000Y-86935000D03*
%TO.P,J2,3,3*%
%TO.N,COP2_FIRE*%
X126670000Y-82795000D03*
%TO.P,J2,4,4*%
%TO.N,GND*%
X130810000Y-82795000D03*
%TD*%
D10*
%TO.P,J1,1,1*%
%TO.N,+12V*%
X101570000Y-86915000D03*
D11*
%TO.P,J1,2,2*%
%TO.N,GND*%
X105710000Y-86915000D03*
%TO.P,J1,3,3*%
%TO.N,COP1_FIRE*%
X101570000Y-82775000D03*
%TO.P,J1,4,4*%
%TO.N,GND*%
X105710000Y-82775000D03*
%TD*%
D16*
%TO.P,C1,1*%
%TO.N,+12V*%
X124554888Y-116900000D03*
D13*
%TO.P,C1,2*%
%TO.N,GND*%
X126554888Y-116900000D03*
%TD*%
D17*
%TO.N,GND*%
X122550000Y-98500000D03*
%TO.N,+5V*%
X119756250Y-99093750D03*
%TD*%
%TO.N,GND*%
D18*
X122550000Y-98500000D02*
X122550000Y-106105113D01*
D19*
X141500000Y-99000000D02*
X141500000Y-104250000D01*
X126510288Y-116660288D02*
X125950000Y-116100000D01*
X126554888Y-116900000D02*
X126554888Y-116660288D01*
D18*
X122550000Y-106105113D02*
X122400000Y-106255113D01*
D19*
X126554888Y-116660288D02*
X126510288Y-116660288D01*
X125950000Y-116100000D02*
X125950000Y-108700000D01*
X141500000Y-104250000D02*
X128850000Y-116900000D01*
X128850000Y-116900000D02*
X126554888Y-116900000D01*
X125950000Y-108700000D02*
X124810000Y-107560000D01*
X123505113Y-106255113D02*
X124810000Y-107560000D01*
X122400000Y-106255113D02*
X123505113Y-106255113D01*
%TO.N,+12V*%
X116650000Y-115900000D02*
X115550000Y-115900000D01*
X117290000Y-117640000D02*
X115550000Y-115900000D01*
X117290000Y-115260000D02*
X116650000Y-115900000D01*
X117290000Y-113560000D02*
X117290000Y-115260000D01*
X117290000Y-117700000D02*
X117290000Y-117640000D01*
%TO.N,+5V*%
D18*
X119756250Y-105611363D02*
X122400000Y-108255113D01*
X119756250Y-99093750D02*
X119756250Y-105611363D01*
%TD*%
%TA.AperFunction,Conductor*%
%TO.N,+12V*%
G36*
X104718882Y-81369685D02*
G01*
X104764637Y-81422489D01*
X104774581Y-81491647D01*
X104745556Y-81555203D01*
X104724728Y-81574319D01*
X104699916Y-81592345D01*
X104527343Y-81764918D01*
X104527339Y-81764923D01*
X104383896Y-81962357D01*
X104273097Y-82179812D01*
X104197678Y-82411927D01*
X104159500Y-82652973D01*
X104159500Y-82897027D01*
X104197679Y-83138076D01*
X104273096Y-83370185D01*
X104369464Y-83559319D01*
X104383896Y-83587642D01*
X104527339Y-83785076D01*
X104527343Y-83785081D01*
X104699918Y-83957656D01*
X104699923Y-83957660D01*
X104730756Y-83980061D01*
X104897361Y-84101106D01*
X105114815Y-84211904D01*
X105346924Y-84287321D01*
X105587973Y-84325500D01*
X105587974Y-84325500D01*
X105832026Y-84325500D01*
X105832027Y-84325500D01*
X106073076Y-84287321D01*
X106305185Y-84211904D01*
X106522639Y-84101106D01*
X106720083Y-83957655D01*
X106892655Y-83785083D01*
X107036106Y-83587639D01*
X107146904Y-83370185D01*
X107222321Y-83138076D01*
X107260500Y-82897027D01*
X107260500Y-82652973D01*
X107222321Y-82411924D01*
X107146904Y-82179815D01*
X107036106Y-81962361D01*
X107017779Y-81937136D01*
X106892660Y-81764923D01*
X106892656Y-81764918D01*
X106720083Y-81592345D01*
X106695272Y-81574319D01*
X106652606Y-81518989D01*
X106646627Y-81449376D01*
X106679232Y-81387580D01*
X106740071Y-81353223D01*
X106768157Y-81350000D01*
X113081843Y-81350000D01*
X113148882Y-81369685D01*
X113194637Y-81422489D01*
X113204581Y-81491647D01*
X113175556Y-81555203D01*
X113154728Y-81574319D01*
X113129916Y-81592345D01*
X112957343Y-81764918D01*
X112957339Y-81764923D01*
X112813896Y-81962357D01*
X112703097Y-82179812D01*
X112627678Y-82411927D01*
X112589500Y-82652973D01*
X112589500Y-82897027D01*
X112627679Y-83138076D01*
X112703096Y-83370185D01*
X112799464Y-83559319D01*
X112813896Y-83587642D01*
X112957339Y-83785076D01*
X112957343Y-83785081D01*
X113129918Y-83957656D01*
X113129923Y-83957660D01*
X113160756Y-83980061D01*
X113327361Y-84101106D01*
X113544815Y-84211904D01*
X113776924Y-84287321D01*
X114017973Y-84325500D01*
X114017974Y-84325500D01*
X114262026Y-84325500D01*
X114262027Y-84325500D01*
X114503076Y-84287321D01*
X114735185Y-84211904D01*
X114952639Y-84101106D01*
X115150083Y-83957655D01*
X115322655Y-83785083D01*
X115466106Y-83587639D01*
X115576904Y-83370185D01*
X115652321Y-83138076D01*
X115690500Y-82897027D01*
X115690500Y-82652973D01*
X115652321Y-82411924D01*
X115576904Y-82179815D01*
X115466106Y-81962361D01*
X115447779Y-81937136D01*
X115322660Y-81764923D01*
X115322656Y-81764918D01*
X115150083Y-81592345D01*
X115125272Y-81574319D01*
X115082606Y-81518989D01*
X115076627Y-81449376D01*
X115109232Y-81387580D01*
X115170071Y-81353223D01*
X115198157Y-81350000D01*
X117221843Y-81350000D01*
X117288882Y-81369685D01*
X117334637Y-81422489D01*
X117344581Y-81491647D01*
X117315556Y-81555203D01*
X117294728Y-81574319D01*
X117269916Y-81592345D01*
X117097343Y-81764918D01*
X117097339Y-81764923D01*
X116953896Y-81962357D01*
X116843097Y-82179812D01*
X116767678Y-82411927D01*
X116729500Y-82652973D01*
X116729500Y-82897027D01*
X116767679Y-83138076D01*
X116843096Y-83370185D01*
X116939464Y-83559319D01*
X116953896Y-83587642D01*
X117097339Y-83785076D01*
X117097343Y-83785081D01*
X117269918Y-83957656D01*
X117269923Y-83957660D01*
X117300756Y-83980061D01*
X117467361Y-84101106D01*
X117684815Y-84211904D01*
X117916924Y-84287321D01*
X118157973Y-84325500D01*
X118157974Y-84325500D01*
X118402026Y-84325500D01*
X118402027Y-84325500D01*
X118643076Y-84287321D01*
X118875185Y-84211904D01*
X119092639Y-84101106D01*
X119290083Y-83957655D01*
X119462655Y-83785083D01*
X119606106Y-83587639D01*
X119716904Y-83370185D01*
X119792321Y-83138076D01*
X119830500Y-82897027D01*
X119830500Y-82652973D01*
X119792321Y-82411924D01*
X119716904Y-82179815D01*
X119606106Y-81962361D01*
X119587779Y-81937136D01*
X119462660Y-81764923D01*
X119462656Y-81764918D01*
X119290083Y-81592345D01*
X119265272Y-81574319D01*
X119222606Y-81518989D01*
X119216627Y-81449376D01*
X119249232Y-81387580D01*
X119310071Y-81353223D01*
X119338157Y-81350000D01*
X125639371Y-81350000D01*
X125706410Y-81369685D01*
X125752165Y-81422489D01*
X125762109Y-81491647D01*
X125733084Y-81555203D01*
X125712258Y-81574317D01*
X125694075Y-81587527D01*
X125659916Y-81612345D01*
X125487343Y-81784918D01*
X125487339Y-81784923D01*
X125343896Y-81982357D01*
X125233097Y-82199812D01*
X125157678Y-82431927D01*
X125119500Y-82672973D01*
X125119500Y-82917026D01*
X125154510Y-83138072D01*
X125157679Y-83158076D01*
X125226598Y-83370187D01*
X125233097Y-83390187D01*
X125343896Y-83607642D01*
X125487339Y-83805076D01*
X125487343Y-83805081D01*
X125659918Y-83977656D01*
X125659923Y-83977660D01*
X125755500Y-84047100D01*
X125857361Y-84121106D01*
X126074815Y-84231904D01*
X126306924Y-84307321D01*
X126547973Y-84345500D01*
X126547974Y-84345500D01*
X126792026Y-84345500D01*
X126792027Y-84345500D01*
X127033076Y-84307321D01*
X127265185Y-84231904D01*
X127482639Y-84121106D01*
X127680083Y-83977655D01*
X127852655Y-83805083D01*
X127996106Y-83607639D01*
X128106904Y-83390185D01*
X128182321Y-83158076D01*
X128220500Y-82917027D01*
X128220500Y-82672973D01*
X128182321Y-82431924D01*
X128106904Y-82199815D01*
X127996106Y-81982361D01*
X127977779Y-81957136D01*
X127852660Y-81784923D01*
X127852656Y-81784918D01*
X127680083Y-81612345D01*
X127652555Y-81592345D01*
X127627743Y-81574318D01*
X127585078Y-81518989D01*
X127579099Y-81449376D01*
X127611704Y-81387580D01*
X127672543Y-81353223D01*
X127700629Y-81350000D01*
X129779371Y-81350000D01*
X129846410Y-81369685D01*
X129892165Y-81422489D01*
X129902109Y-81491647D01*
X129873084Y-81555203D01*
X129852258Y-81574317D01*
X129834075Y-81587527D01*
X129799916Y-81612345D01*
X129627343Y-81784918D01*
X129627339Y-81784923D01*
X129483896Y-81982357D01*
X129373097Y-82199812D01*
X129297678Y-82431927D01*
X129259500Y-82672973D01*
X129259500Y-82917026D01*
X129294510Y-83138072D01*
X129297679Y-83158076D01*
X129366598Y-83370187D01*
X129373097Y-83390187D01*
X129483896Y-83607642D01*
X129627339Y-83805076D01*
X129627343Y-83805081D01*
X129799918Y-83977656D01*
X129799923Y-83977660D01*
X129895500Y-84047100D01*
X129997361Y-84121106D01*
X130214815Y-84231904D01*
X130446924Y-84307321D01*
X130687973Y-84345500D01*
X130687974Y-84345500D01*
X130932026Y-84345500D01*
X130932027Y-84345500D01*
X131173076Y-84307321D01*
X131405185Y-84231904D01*
X131622639Y-84121106D01*
X131820083Y-83977655D01*
X131992655Y-83805083D01*
X132136106Y-83607639D01*
X132246904Y-83390185D01*
X132322321Y-83158076D01*
X132360500Y-82917027D01*
X132360500Y-82672973D01*
X132322321Y-82431924D01*
X132246904Y-82199815D01*
X132136106Y-81982361D01*
X132117779Y-81957136D01*
X131992660Y-81784923D01*
X131992656Y-81784918D01*
X131820083Y-81612345D01*
X131792555Y-81592345D01*
X131767743Y-81574318D01*
X131725078Y-81518989D01*
X131719099Y-81449376D01*
X131751704Y-81387580D01*
X131812543Y-81353223D01*
X131840629Y-81350000D01*
X138281843Y-81350000D01*
X138348882Y-81369685D01*
X138394637Y-81422489D01*
X138404581Y-81491647D01*
X138375556Y-81555203D01*
X138354728Y-81574319D01*
X138329916Y-81592345D01*
X138157343Y-81764918D01*
X138157339Y-81764923D01*
X138013896Y-81962357D01*
X137903097Y-82179812D01*
X137827678Y-82411927D01*
X137789500Y-82652973D01*
X137789500Y-82897027D01*
X137827679Y-83138076D01*
X137903096Y-83370185D01*
X137999464Y-83559319D01*
X138013896Y-83587642D01*
X138157339Y-83785076D01*
X138157343Y-83785081D01*
X138329918Y-83957656D01*
X138329923Y-83957660D01*
X138360756Y-83980061D01*
X138527361Y-84101106D01*
X138744815Y-84211904D01*
X138976924Y-84287321D01*
X139217973Y-84325500D01*
X139217974Y-84325500D01*
X139462026Y-84325500D01*
X139462027Y-84325500D01*
X139703076Y-84287321D01*
X139935185Y-84211904D01*
X140152639Y-84101106D01*
X140350083Y-83957655D01*
X140522655Y-83785083D01*
X140666106Y-83587639D01*
X140776904Y-83370185D01*
X140852321Y-83138076D01*
X140890500Y-82897027D01*
X140890500Y-82652973D01*
X140852321Y-82411924D01*
X140776904Y-82179815D01*
X140776902Y-82179812D01*
X140776902Y-82179810D01*
X140760559Y-82147736D01*
X140747662Y-82079067D01*
X140773937Y-82014326D01*
X140831043Y-81974069D01*
X140900849Y-81971076D01*
X140961191Y-82006297D01*
X140972386Y-82019986D01*
X141099176Y-82199812D01*
X141924371Y-83370187D01*
X142007343Y-83487865D01*
X142029886Y-83553998D01*
X142030000Y-83559319D01*
X142030000Y-86340480D01*
X142023931Y-86378798D01*
X141967678Y-86551926D01*
X141967678Y-86551927D01*
X141929500Y-86792973D01*
X141929500Y-87037026D01*
X141967678Y-87278072D01*
X141967678Y-87278074D01*
X141967679Y-87278076D01*
X141994695Y-87361224D01*
X142023931Y-87451200D01*
X142030000Y-87489518D01*
X142030000Y-92826000D01*
X142010315Y-92893039D01*
X141957511Y-92938794D01*
X141906000Y-92950000D01*
X136465197Y-92950000D01*
X123077470Y-92950000D01*
X118752590Y-98444667D01*
X118600000Y-98638529D01*
X118621776Y-104340087D01*
X118621757Y-104342795D01*
X118599999Y-105549999D01*
X120974425Y-109131929D01*
X121150000Y-109396791D01*
X123176600Y-112377343D01*
X123238799Y-112468819D01*
X123260215Y-112535325D01*
X123260254Y-112537704D01*
X123274672Y-114674671D01*
X123274672Y-114674672D01*
X123992764Y-115392764D01*
X124026249Y-115454087D01*
X124021265Y-115523779D01*
X123979393Y-115579712D01*
X123917686Y-115603803D01*
X123852190Y-115610494D01*
X123685768Y-115665641D01*
X123685763Y-115665643D01*
X123536542Y-115757684D01*
X123412572Y-115881654D01*
X123320531Y-116030875D01*
X123320529Y-116030880D01*
X123265382Y-116197302D01*
X123265381Y-116197309D01*
X123254888Y-116300013D01*
X123254888Y-116650000D01*
X124239202Y-116650000D01*
X124234808Y-116654394D01*
X124182147Y-116745606D01*
X124154888Y-116847339D01*
X124154888Y-116952661D01*
X124182147Y-117054394D01*
X124234808Y-117145606D01*
X124239202Y-117150000D01*
X123254889Y-117150000D01*
X123254889Y-117499986D01*
X123265382Y-117602697D01*
X123320529Y-117769119D01*
X123320531Y-117769124D01*
X123412572Y-117918345D01*
X123536542Y-118042315D01*
X123685763Y-118134356D01*
X123685768Y-118134358D01*
X123852190Y-118189505D01*
X123852197Y-118189506D01*
X123954907Y-118199999D01*
X124304887Y-118199999D01*
X124304888Y-118199998D01*
X124304888Y-117215686D01*
X124309282Y-117220080D01*
X124400494Y-117272741D01*
X124502227Y-117300000D01*
X124607549Y-117300000D01*
X124709282Y-117272741D01*
X124800494Y-117220080D01*
X124804888Y-117215686D01*
X124804888Y-118199999D01*
X125157413Y-118199999D01*
X125224452Y-118219684D01*
X125270207Y-118272488D01*
X125281389Y-118321566D01*
X125297519Y-119143567D01*
X125294818Y-119153478D01*
X125296281Y-119163647D01*
X125285791Y-119186616D01*
X125279154Y-119210980D01*
X125271523Y-119217858D01*
X125267256Y-119227203D01*
X125246011Y-119240855D01*
X125227257Y-119257762D01*
X125215556Y-119260427D01*
X125208478Y-119264977D01*
X125173543Y-119270000D01*
X124970109Y-119270000D01*
X124969698Y-119269999D01*
X118837820Y-119249694D01*
X118770846Y-119229788D01*
X118725267Y-119176833D01*
X118715552Y-119107642D01*
X118738965Y-119051383D01*
X118783352Y-118992089D01*
X118783354Y-118992086D01*
X118833596Y-118857379D01*
X118833598Y-118857372D01*
X118839999Y-118797844D01*
X118840000Y-118797827D01*
X118840000Y-117950000D01*
X117944121Y-117950000D01*
X117963099Y-117904182D01*
X117990000Y-117768944D01*
X117990000Y-117631056D01*
X117963099Y-117495818D01*
X117944121Y-117450000D01*
X118840000Y-117450000D01*
X118840000Y-116602172D01*
X118839999Y-116602155D01*
X118833598Y-116542627D01*
X118833596Y-116542620D01*
X118783354Y-116407913D01*
X118783350Y-116407906D01*
X118697190Y-116292812D01*
X118697187Y-116292809D01*
X118582093Y-116206649D01*
X118582086Y-116206645D01*
X118447379Y-116156403D01*
X118447372Y-116156401D01*
X118387844Y-116150000D01*
X117540000Y-116150000D01*
X117540000Y-117045879D01*
X117494182Y-117026901D01*
X117358944Y-117000000D01*
X117221056Y-117000000D01*
X117085818Y-117026901D01*
X117040000Y-117045879D01*
X117040000Y-116150000D01*
X116192155Y-116150000D01*
X116132627Y-116156401D01*
X116132620Y-116156403D01*
X115997913Y-116206645D01*
X115997906Y-116206649D01*
X115882812Y-116292809D01*
X115882809Y-116292812D01*
X115796649Y-116407906D01*
X115796645Y-116407913D01*
X115746403Y-116542620D01*
X115746401Y-116542627D01*
X115740000Y-116602155D01*
X115740000Y-117450000D01*
X116635879Y-117450000D01*
X116616901Y-117495818D01*
X116590000Y-117631056D01*
X116590000Y-117768944D01*
X116616901Y-117904182D01*
X116635879Y-117950000D01*
X115740000Y-117950000D01*
X115740000Y-118797844D01*
X115746401Y-118857372D01*
X115746403Y-118857379D01*
X115796645Y-118992086D01*
X115796647Y-118992089D01*
X115833779Y-119041691D01*
X115858196Y-119107155D01*
X115843344Y-119175428D01*
X115793939Y-119224834D01*
X115734514Y-119240002D01*
X114049835Y-119240028D01*
X113982795Y-119220344D01*
X113937039Y-119167541D01*
X113927095Y-119098383D01*
X113956119Y-119034827D01*
X113976948Y-119015710D01*
X114160077Y-118882660D01*
X114160079Y-118882657D01*
X114160083Y-118882655D01*
X114332655Y-118710083D01*
X114476106Y-118512639D01*
X114586904Y-118295185D01*
X114662321Y-118063076D01*
X114700500Y-117822027D01*
X114700500Y-117577973D01*
X114662321Y-117336924D01*
X114586904Y-117104815D01*
X114476106Y-116887361D01*
X114393745Y-116774000D01*
X114332660Y-116689923D01*
X114332656Y-116689918D01*
X114160081Y-116517343D01*
X114160076Y-116517339D01*
X113962642Y-116373896D01*
X113962641Y-116373895D01*
X113962639Y-116373894D01*
X113745185Y-116263096D01*
X113513076Y-116187679D01*
X113513074Y-116187678D01*
X113513072Y-116187678D01*
X113315610Y-116156403D01*
X113272027Y-116149500D01*
X113027973Y-116149500D01*
X112984390Y-116156403D01*
X112786927Y-116187678D01*
X112554812Y-116263097D01*
X112337357Y-116373896D01*
X112139923Y-116517339D01*
X112139918Y-116517343D01*
X111967343Y-116689918D01*
X111967339Y-116689923D01*
X111823896Y-116887357D01*
X111713097Y-117104812D01*
X111637678Y-117336927D01*
X111599500Y-117577973D01*
X111599500Y-117822026D01*
X111634390Y-118042315D01*
X111637679Y-118063076D01*
X111705721Y-118272488D01*
X111713097Y-118295187D01*
X111823896Y-118512642D01*
X111967339Y-118710076D01*
X111967343Y-118710081D01*
X112139918Y-118882656D01*
X112139923Y-118882660D01*
X112323089Y-119015738D01*
X112365755Y-119071068D01*
X112371734Y-119140681D01*
X112339128Y-119202476D01*
X112278290Y-119236833D01*
X112250206Y-119240056D01*
X108210129Y-119240118D01*
X108210117Y-119240118D01*
X106787978Y-119240000D01*
X106787409Y-119239999D01*
X100483308Y-119210575D01*
X100416361Y-119190577D01*
X100370853Y-119137560D01*
X100359887Y-119086693D01*
X100356616Y-115487088D01*
X103629500Y-115487088D01*
X103629500Y-115772911D01*
X103629501Y-115772927D01*
X103666807Y-116056296D01*
X103666808Y-116056301D01*
X103666809Y-116056307D01*
X103740788Y-116332403D01*
X103740791Y-116332410D01*
X103850171Y-116596476D01*
X103850176Y-116596487D01*
X103993089Y-116844019D01*
X104167093Y-117070787D01*
X104167099Y-117070794D01*
X104369205Y-117272900D01*
X104369212Y-117272906D01*
X104595980Y-117446910D01*
X104843512Y-117589823D01*
X104843517Y-117589825D01*
X104843520Y-117589827D01*
X105107597Y-117699212D01*
X105383693Y-117773191D01*
X105667082Y-117810500D01*
X105667089Y-117810500D01*
X105952911Y-117810500D01*
X105952918Y-117810500D01*
X106236307Y-117773191D01*
X106512403Y-117699212D01*
X106776480Y-117589827D01*
X107024020Y-117446910D01*
X107250789Y-117272905D01*
X107452905Y-117070789D01*
X107626910Y-116844020D01*
X107769827Y-116596480D01*
X107879212Y-116332403D01*
X107953191Y-116056307D01*
X107990500Y-115772918D01*
X107990500Y-115487082D01*
X107953191Y-115203693D01*
X107879212Y-114927597D01*
X107769827Y-114663520D01*
X107769825Y-114663517D01*
X107769823Y-114663512D01*
X107626910Y-114415980D01*
X107452906Y-114189212D01*
X107452900Y-114189205D01*
X107250794Y-113987099D01*
X107250787Y-113987093D01*
X107024019Y-113813089D01*
X106776487Y-113670176D01*
X106776476Y-113670171D01*
X106512410Y-113560791D01*
X106512411Y-113560791D01*
X106512403Y-113560788D01*
X106509458Y-113559999D01*
X106506163Y-113559116D01*
X106236307Y-113486809D01*
X106236301Y-113486808D01*
X106236296Y-113486807D01*
X105952927Y-113449501D01*
X105952924Y-113449500D01*
X105952918Y-113449500D01*
X105667082Y-113449500D01*
X105667076Y-113449500D01*
X105667072Y-113449501D01*
X105383703Y-113486807D01*
X105383696Y-113486808D01*
X105383693Y-113486809D01*
X105367843Y-113491056D01*
X105107603Y-113560786D01*
X105107589Y-113560791D01*
X104843523Y-113670171D01*
X104843512Y-113670176D01*
X104595980Y-113813089D01*
X104369212Y-113987093D01*
X104369205Y-113987099D01*
X104167099Y-114189205D01*
X104167093Y-114189212D01*
X103993089Y-114415980D01*
X103850176Y-114663512D01*
X103850171Y-114663523D01*
X103740791Y-114927589D01*
X103740786Y-114927603D01*
X103666810Y-115203690D01*
X103666807Y-115203703D01*
X103629501Y-115487072D01*
X103629500Y-115487088D01*
X100356616Y-115487088D01*
X100354754Y-113437973D01*
X111599500Y-113437973D01*
X111599500Y-113682026D01*
X111636170Y-113913553D01*
X111637679Y-113923076D01*
X111713096Y-114155185D01*
X111823762Y-114372380D01*
X111823896Y-114372642D01*
X111967339Y-114570076D01*
X111967343Y-114570081D01*
X112139918Y-114742656D01*
X112139923Y-114742660D01*
X112244248Y-114818456D01*
X112337361Y-114886106D01*
X112554815Y-114996904D01*
X112786924Y-115072321D01*
X113027973Y-115110500D01*
X113027974Y-115110500D01*
X113272026Y-115110500D01*
X113272027Y-115110500D01*
X113513076Y-115072321D01*
X113745185Y-114996904D01*
X113962639Y-114886106D01*
X114160083Y-114742655D01*
X114332655Y-114570083D01*
X114476106Y-114372639D01*
X114586904Y-114155185D01*
X114662321Y-113923076D01*
X114700500Y-113682027D01*
X114700500Y-113438006D01*
X115740000Y-113438006D01*
X115740000Y-113681993D01*
X115778165Y-113922959D01*
X115853560Y-114154998D01*
X115964323Y-114372380D01*
X116031543Y-114464901D01*
X116031544Y-114464902D01*
X116650690Y-113845756D01*
X116669668Y-113891574D01*
X116746274Y-114006224D01*
X116843776Y-114103726D01*
X116958426Y-114180332D01*
X117004242Y-114199309D01*
X116385096Y-114818454D01*
X116385097Y-114818456D01*
X116477619Y-114885676D01*
X116695001Y-114996439D01*
X116927040Y-115071834D01*
X117168007Y-115110000D01*
X117411993Y-115110000D01*
X117652959Y-115071834D01*
X117884998Y-114996439D01*
X118102377Y-114885678D01*
X118194901Y-114818454D01*
X118194902Y-114818454D01*
X117575757Y-114199309D01*
X117621574Y-114180332D01*
X117736224Y-114103726D01*
X117833726Y-114006224D01*
X117910332Y-113891574D01*
X117929309Y-113845757D01*
X118548454Y-114464902D01*
X118548454Y-114464901D01*
X118615678Y-114372377D01*
X118726439Y-114154998D01*
X118801834Y-113922959D01*
X118840000Y-113681993D01*
X118840000Y-113438006D01*
X118801834Y-113197040D01*
X118726439Y-112965001D01*
X118615676Y-112747619D01*
X118548456Y-112655097D01*
X118548454Y-112655096D01*
X117929309Y-113274241D01*
X117910332Y-113228426D01*
X117833726Y-113113776D01*
X117736224Y-113016274D01*
X117621574Y-112939668D01*
X117575756Y-112920689D01*
X118194902Y-112301544D01*
X118194901Y-112301543D01*
X118102380Y-112234323D01*
X117884998Y-112123560D01*
X117652959Y-112048165D01*
X117411993Y-112010000D01*
X117168007Y-112010000D01*
X116927040Y-112048165D01*
X116695001Y-112123560D01*
X116477626Y-112234319D01*
X116385097Y-112301544D01*
X117004243Y-112920689D01*
X116958426Y-112939668D01*
X116843776Y-113016274D01*
X116746274Y-113113776D01*
X116669668Y-113228426D01*
X116650690Y-113274243D01*
X116031544Y-112655097D01*
X115964319Y-112747626D01*
X115853560Y-112965001D01*
X115778165Y-113197040D01*
X115740000Y-113438006D01*
X114700500Y-113438006D01*
X114700500Y-113437973D01*
X114662321Y-113196924D01*
X114586904Y-112964815D01*
X114476106Y-112747361D01*
X114457779Y-112722136D01*
X114332660Y-112549923D01*
X114332656Y-112549918D01*
X114160081Y-112377343D01*
X114160076Y-112377339D01*
X113962642Y-112233896D01*
X113962641Y-112233895D01*
X113962639Y-112233894D01*
X113745185Y-112123096D01*
X113513076Y-112047679D01*
X113513074Y-112047678D01*
X113513072Y-112047678D01*
X113344769Y-112021021D01*
X113272027Y-112009500D01*
X113027973Y-112009500D01*
X112972093Y-112018350D01*
X112786927Y-112047678D01*
X112554812Y-112123097D01*
X112337357Y-112233896D01*
X112139923Y-112377339D01*
X112139918Y-112377343D01*
X111967343Y-112549918D01*
X111967339Y-112549923D01*
X111823896Y-112747357D01*
X111713097Y-112964812D01*
X111637678Y-113196927D01*
X111599500Y-113437973D01*
X100354754Y-113437973D01*
X100350841Y-109131929D01*
X100350000Y-104880000D01*
X100350000Y-101591057D01*
X100369685Y-101524018D01*
X100422489Y-101478263D01*
X100491647Y-101468319D01*
X100555203Y-101497344D01*
X100575573Y-101519932D01*
X100588198Y-101537963D01*
X100624639Y-101590006D01*
X100797083Y-101795517D01*
X100863217Y-101874332D01*
X101125668Y-102136783D01*
X101243889Y-102235982D01*
X101409993Y-102375360D01*
X101714014Y-102588238D01*
X101714021Y-102588242D01*
X101714032Y-102588250D01*
X102035468Y-102773831D01*
X102035477Y-102773835D01*
X102371859Y-102930693D01*
X102632566Y-103025582D01*
X102720632Y-103057635D01*
X102720633Y-103057635D01*
X102720638Y-103057637D01*
X102833267Y-103087815D01*
X103079147Y-103153699D01*
X103444670Y-103218151D01*
X103814417Y-103250499D01*
X103814418Y-103250500D01*
X103814419Y-103250500D01*
X104185582Y-103250500D01*
X104185582Y-103250499D01*
X104555330Y-103218151D01*
X104920853Y-103153699D01*
X105279368Y-103057635D01*
X105628145Y-102930691D01*
X105964532Y-102773831D01*
X106285968Y-102588250D01*
X106590005Y-102375361D01*
X106874332Y-102136783D01*
X107136783Y-101874332D01*
X107375361Y-101590005D01*
X107588250Y-101285968D01*
X107773831Y-100964532D01*
X107930691Y-100628145D01*
X108057635Y-100279368D01*
X108153699Y-99920853D01*
X108218151Y-99555330D01*
X108250500Y-99185581D01*
X108250500Y-98814419D01*
X108218151Y-98444670D01*
X108153699Y-98079147D01*
X108057635Y-97720632D01*
X108025582Y-97632566D01*
X107930693Y-97371859D01*
X107773835Y-97035477D01*
X107773827Y-97035461D01*
X107762177Y-97015283D01*
X107588250Y-96714032D01*
X107588242Y-96714021D01*
X107588238Y-96714014D01*
X107375360Y-96409993D01*
X107136780Y-96125665D01*
X106874334Y-95863219D01*
X106590006Y-95624639D01*
X106285985Y-95411761D01*
X106285974Y-95411754D01*
X106285968Y-95411750D01*
X106190470Y-95356614D01*
X105964538Y-95226172D01*
X105964522Y-95226164D01*
X105628140Y-95069306D01*
X105279361Y-94942362D01*
X104920860Y-94846303D01*
X104920863Y-94846303D01*
X104920853Y-94846301D01*
X104869246Y-94837201D01*
X104555332Y-94781849D01*
X104185584Y-94749500D01*
X104185581Y-94749500D01*
X103814419Y-94749500D01*
X103814415Y-94749500D01*
X103444667Y-94781849D01*
X103079152Y-94846300D01*
X103079149Y-94846300D01*
X103079147Y-94846301D01*
X103079142Y-94846302D01*
X103079139Y-94846303D01*
X102720638Y-94942362D01*
X102371859Y-95069306D01*
X102035477Y-95226164D01*
X102035461Y-95226172D01*
X101714040Y-95411745D01*
X101714014Y-95411761D01*
X101409993Y-95624639D01*
X101125665Y-95863219D01*
X100863219Y-96125665D01*
X100624643Y-96409988D01*
X100575575Y-96480066D01*
X100520998Y-96523690D01*
X100451499Y-96530883D01*
X100389145Y-96499361D01*
X100353731Y-96439131D01*
X100350000Y-96408942D01*
X100350000Y-88589000D01*
X100369685Y-88521961D01*
X100422489Y-88476206D01*
X100474000Y-88465000D01*
X101320000Y-88465000D01*
X101320000Y-87569120D01*
X101365818Y-87588099D01*
X101501056Y-87615000D01*
X101638944Y-87615000D01*
X101774182Y-87588099D01*
X101820000Y-87569120D01*
X101820000Y-88465000D01*
X102667828Y-88465000D01*
X102667844Y-88464999D01*
X102727372Y-88458598D01*
X102727379Y-88458596D01*
X102862086Y-88408354D01*
X102862093Y-88408350D01*
X102977187Y-88322190D01*
X102977190Y-88322187D01*
X103063350Y-88207093D01*
X103063354Y-88207086D01*
X103113596Y-88072379D01*
X103113598Y-88072372D01*
X103119999Y-88012844D01*
X103120000Y-88012827D01*
X103120000Y-87165000D01*
X102224121Y-87165000D01*
X102243099Y-87119182D01*
X102270000Y-86983944D01*
X102270000Y-86846056D01*
X102259441Y-86792973D01*
X104159500Y-86792973D01*
X104159500Y-87037026D01*
X104197678Y-87278072D01*
X104197678Y-87278074D01*
X104197679Y-87278076D01*
X104273096Y-87510185D01*
X104296099Y-87555332D01*
X104383896Y-87727642D01*
X104527339Y-87925076D01*
X104527343Y-87925081D01*
X104699918Y-88097656D01*
X104699923Y-88097660D01*
X104850536Y-88207086D01*
X104897361Y-88241106D01*
X105114815Y-88351904D01*
X105346924Y-88427321D01*
X105587973Y-88465500D01*
X105587974Y-88465500D01*
X105832026Y-88465500D01*
X105832027Y-88465500D01*
X106073076Y-88427321D01*
X106305185Y-88351904D01*
X106522639Y-88241106D01*
X106720083Y-88097655D01*
X106892655Y-87925083D01*
X107036106Y-87727639D01*
X107146904Y-87510185D01*
X107222321Y-87278076D01*
X107260500Y-87037027D01*
X107260500Y-86792973D01*
X107222321Y-86551924D01*
X107146904Y-86319815D01*
X107036106Y-86102361D01*
X107017779Y-86077136D01*
X106892660Y-85904923D01*
X106892656Y-85904918D01*
X106804893Y-85817155D01*
X112590000Y-85817155D01*
X112590000Y-86665000D01*
X113485879Y-86665000D01*
X113466901Y-86710818D01*
X113440000Y-86846056D01*
X113440000Y-86983944D01*
X113466901Y-87119182D01*
X113485879Y-87165000D01*
X112590000Y-87165000D01*
X112590000Y-88012844D01*
X112596401Y-88072372D01*
X112596403Y-88072379D01*
X112646645Y-88207086D01*
X112646649Y-88207093D01*
X112732809Y-88322187D01*
X112732812Y-88322190D01*
X112847906Y-88408350D01*
X112847913Y-88408354D01*
X112982620Y-88458596D01*
X112982627Y-88458598D01*
X113042155Y-88464999D01*
X113042172Y-88465000D01*
X113890000Y-88465000D01*
X113890000Y-87569120D01*
X113935818Y-87588099D01*
X114071056Y-87615000D01*
X114208944Y-87615000D01*
X114344182Y-87588099D01*
X114390000Y-87569120D01*
X114390000Y-88465000D01*
X115237828Y-88465000D01*
X115237844Y-88464999D01*
X115297372Y-88458598D01*
X115297379Y-88458596D01*
X115432086Y-88408354D01*
X115432093Y-88408350D01*
X115547187Y-88322190D01*
X115547190Y-88322187D01*
X115633350Y-88207093D01*
X115633354Y-88207086D01*
X115683596Y-88072379D01*
X115683598Y-88072372D01*
X115689999Y-88012844D01*
X115690000Y-88012827D01*
X115690000Y-87165000D01*
X114794121Y-87165000D01*
X114813099Y-87119182D01*
X114840000Y-86983944D01*
X114840000Y-86846056D01*
X114829441Y-86792973D01*
X116729500Y-86792973D01*
X116729500Y-87037026D01*
X116767678Y-87278072D01*
X116767678Y-87278074D01*
X116767679Y-87278076D01*
X116843096Y-87510185D01*
X116866099Y-87555332D01*
X116953896Y-87727642D01*
X117097339Y-87925076D01*
X117097343Y-87925081D01*
X117269918Y-88097656D01*
X117269923Y-88097660D01*
X117420536Y-88207086D01*
X117467361Y-88241106D01*
X117684815Y-88351904D01*
X117916924Y-88427321D01*
X118157973Y-88465500D01*
X118157974Y-88465500D01*
X118402026Y-88465500D01*
X118402027Y-88465500D01*
X118643076Y-88427321D01*
X118875185Y-88351904D01*
X119092639Y-88241106D01*
X119290083Y-88097655D01*
X119462655Y-87925083D01*
X119606106Y-87727639D01*
X119716904Y-87510185D01*
X119792321Y-87278076D01*
X119830500Y-87037027D01*
X119830500Y-86792973D01*
X119792321Y-86551924D01*
X119716904Y-86319815D01*
X119606106Y-86102361D01*
X119606104Y-86102358D01*
X119606103Y-86102356D01*
X119463983Y-85906742D01*
X119463981Y-85906741D01*
X119462658Y-85904920D01*
X119394893Y-85837155D01*
X125120000Y-85837155D01*
X125120000Y-86685000D01*
X126015879Y-86685000D01*
X125996901Y-86730818D01*
X125970000Y-86866056D01*
X125970000Y-87003944D01*
X125996901Y-87139182D01*
X126015879Y-87185000D01*
X125120000Y-87185000D01*
X125120000Y-88032844D01*
X125126401Y-88092372D01*
X125126403Y-88092379D01*
X125176645Y-88227086D01*
X125176649Y-88227093D01*
X125262809Y-88342187D01*
X125262812Y-88342190D01*
X125377906Y-88428350D01*
X125377913Y-88428354D01*
X125512620Y-88478596D01*
X125512627Y-88478598D01*
X125572155Y-88484999D01*
X125572172Y-88485000D01*
X126420000Y-88485000D01*
X126420000Y-87589120D01*
X126465818Y-87608099D01*
X126601056Y-87635000D01*
X126738944Y-87635000D01*
X126874182Y-87608099D01*
X126920000Y-87589120D01*
X126920000Y-88485000D01*
X127767828Y-88485000D01*
X127767844Y-88484999D01*
X127827372Y-88478598D01*
X127827379Y-88478596D01*
X127962086Y-88428354D01*
X127962093Y-88428350D01*
X128077187Y-88342190D01*
X128077190Y-88342187D01*
X128163350Y-88227093D01*
X128163354Y-88227086D01*
X128213596Y-88092379D01*
X128213598Y-88092372D01*
X128219999Y-88032844D01*
X128220000Y-88032827D01*
X128220000Y-87185000D01*
X127324121Y-87185000D01*
X127343099Y-87139182D01*
X127370000Y-87003944D01*
X127370000Y-86866056D01*
X127359441Y-86812973D01*
X129259500Y-86812973D01*
X129259500Y-87057026D01*
X129294510Y-87278073D01*
X129297679Y-87298076D01*
X129366598Y-87510187D01*
X129373097Y-87530187D01*
X129483896Y-87747642D01*
X129627339Y-87945076D01*
X129627343Y-87945081D01*
X129799918Y-88117656D01*
X129799923Y-88117660D01*
X129923018Y-88207093D01*
X129997361Y-88261106D01*
X130214815Y-88371904D01*
X130446924Y-88447321D01*
X130687973Y-88485500D01*
X130687974Y-88485500D01*
X130932026Y-88485500D01*
X130932027Y-88485500D01*
X131173076Y-88447321D01*
X131405185Y-88371904D01*
X131622639Y-88261106D01*
X131820083Y-88117655D01*
X131992655Y-87945083D01*
X132136106Y-87747639D01*
X132246904Y-87530185D01*
X132322321Y-87298076D01*
X132360500Y-87057027D01*
X132360500Y-86812973D01*
X132322321Y-86571924D01*
X132246904Y-86339815D01*
X132136106Y-86122361D01*
X132117779Y-86097136D01*
X131992660Y-85924923D01*
X131992656Y-85924918D01*
X131884893Y-85817155D01*
X137790000Y-85817155D01*
X137790000Y-86665000D01*
X138685879Y-86665000D01*
X138666901Y-86710818D01*
X138640000Y-86846056D01*
X138640000Y-86983944D01*
X138666901Y-87119182D01*
X138685879Y-87165000D01*
X137790000Y-87165000D01*
X137790000Y-88012844D01*
X137796401Y-88072372D01*
X137796403Y-88072379D01*
X137846645Y-88207086D01*
X137846649Y-88207093D01*
X137932809Y-88322187D01*
X137932812Y-88322190D01*
X138047906Y-88408350D01*
X138047913Y-88408354D01*
X138182620Y-88458596D01*
X138182627Y-88458598D01*
X138242155Y-88464999D01*
X138242172Y-88465000D01*
X139090000Y-88465000D01*
X139090000Y-87569120D01*
X139135818Y-87588099D01*
X139271056Y-87615000D01*
X139408944Y-87615000D01*
X139544182Y-87588099D01*
X139590000Y-87569120D01*
X139590000Y-88465000D01*
X140437828Y-88465000D01*
X140437844Y-88464999D01*
X140497372Y-88458598D01*
X140497379Y-88458596D01*
X140632086Y-88408354D01*
X140632093Y-88408350D01*
X140747187Y-88322190D01*
X140747190Y-88322187D01*
X140833350Y-88207093D01*
X140833354Y-88207086D01*
X140883596Y-88072379D01*
X140883598Y-88072372D01*
X140889999Y-88012844D01*
X140890000Y-88012827D01*
X140890000Y-87165000D01*
X139994121Y-87165000D01*
X140013099Y-87119182D01*
X140040000Y-86983944D01*
X140040000Y-86846056D01*
X140013099Y-86710818D01*
X139994121Y-86665000D01*
X140890000Y-86665000D01*
X140890000Y-85817172D01*
X140889999Y-85817155D01*
X140883598Y-85757627D01*
X140883596Y-85757620D01*
X140833354Y-85622913D01*
X140833350Y-85622906D01*
X140747190Y-85507812D01*
X140747187Y-85507809D01*
X140632093Y-85421649D01*
X140632086Y-85421645D01*
X140497379Y-85371403D01*
X140497372Y-85371401D01*
X140437844Y-85365000D01*
X139590000Y-85365000D01*
X139590000Y-86260879D01*
X139544182Y-86241901D01*
X139408944Y-86215000D01*
X139271056Y-86215000D01*
X139135818Y-86241901D01*
X139090000Y-86260879D01*
X139090000Y-85365000D01*
X138242155Y-85365000D01*
X138182627Y-85371401D01*
X138182620Y-85371403D01*
X138047913Y-85421645D01*
X138047906Y-85421649D01*
X137932812Y-85507809D01*
X137932809Y-85507812D01*
X137846649Y-85622906D01*
X137846645Y-85622913D01*
X137796403Y-85757620D01*
X137796401Y-85757627D01*
X137790000Y-85817155D01*
X131884893Y-85817155D01*
X131820081Y-85752343D01*
X131820076Y-85752339D01*
X131622642Y-85608896D01*
X131622641Y-85608895D01*
X131622639Y-85608894D01*
X131405185Y-85498096D01*
X131173076Y-85422679D01*
X131173074Y-85422678D01*
X131173072Y-85422678D01*
X130975610Y-85391403D01*
X130932027Y-85384500D01*
X130687973Y-85384500D01*
X130644390Y-85391403D01*
X130446927Y-85422678D01*
X130330869Y-85460387D01*
X130276369Y-85478096D01*
X130214812Y-85498097D01*
X129997357Y-85608896D01*
X129799923Y-85752339D01*
X129799918Y-85752343D01*
X129627343Y-85924918D01*
X129627339Y-85924923D01*
X129483896Y-86122357D01*
X129373097Y-86339812D01*
X129297678Y-86571927D01*
X129259500Y-86812973D01*
X127359441Y-86812973D01*
X127343099Y-86730818D01*
X127324121Y-86685000D01*
X128220000Y-86685000D01*
X128220000Y-85837172D01*
X128219999Y-85837155D01*
X128213598Y-85777627D01*
X128213596Y-85777620D01*
X128163354Y-85642913D01*
X128163350Y-85642906D01*
X128077190Y-85527812D01*
X128077187Y-85527809D01*
X127962093Y-85441649D01*
X127962086Y-85441645D01*
X127827379Y-85391403D01*
X127827372Y-85391401D01*
X127767844Y-85385000D01*
X126920000Y-85385000D01*
X126920000Y-86280879D01*
X126874182Y-86261901D01*
X126738944Y-86235000D01*
X126601056Y-86235000D01*
X126465818Y-86261901D01*
X126420000Y-86280879D01*
X126420000Y-85385000D01*
X125572155Y-85385000D01*
X125512627Y-85391401D01*
X125512620Y-85391403D01*
X125377913Y-85441645D01*
X125377906Y-85441649D01*
X125262812Y-85527809D01*
X125262809Y-85527812D01*
X125176649Y-85642906D01*
X125176645Y-85642913D01*
X125126403Y-85777620D01*
X125126401Y-85777627D01*
X125120000Y-85837155D01*
X119394893Y-85837155D01*
X119290081Y-85732343D01*
X119290076Y-85732339D01*
X119092642Y-85588896D01*
X119092641Y-85588895D01*
X119092639Y-85588894D01*
X118875185Y-85478096D01*
X118643076Y-85402679D01*
X118643074Y-85402678D01*
X118643072Y-85402678D01*
X118445610Y-85371403D01*
X118402027Y-85364500D01*
X118157973Y-85364500D01*
X118114390Y-85371403D01*
X117916927Y-85402678D01*
X117684812Y-85478097D01*
X117467357Y-85588896D01*
X117269923Y-85732339D01*
X117269918Y-85732343D01*
X117097343Y-85904918D01*
X117097339Y-85904923D01*
X116953896Y-86102357D01*
X116843097Y-86319812D01*
X116843096Y-86319814D01*
X116843096Y-86319815D01*
X116805387Y-86435869D01*
X116767678Y-86551927D01*
X116729500Y-86792973D01*
X114829441Y-86792973D01*
X114813099Y-86710818D01*
X114794121Y-86665000D01*
X115690000Y-86665000D01*
X115690000Y-85817172D01*
X115689999Y-85817155D01*
X115683598Y-85757627D01*
X115683596Y-85757620D01*
X115633354Y-85622913D01*
X115633350Y-85622906D01*
X115547190Y-85507812D01*
X115547187Y-85507809D01*
X115432093Y-85421649D01*
X115432086Y-85421645D01*
X115297379Y-85371403D01*
X115297372Y-85371401D01*
X115237844Y-85365000D01*
X114390000Y-85365000D01*
X114390000Y-86260879D01*
X114344182Y-86241901D01*
X114208944Y-86215000D01*
X114071056Y-86215000D01*
X113935818Y-86241901D01*
X113890000Y-86260879D01*
X113890000Y-85365000D01*
X113042155Y-85365000D01*
X112982627Y-85371401D01*
X112982620Y-85371403D01*
X112847913Y-85421645D01*
X112847906Y-85421649D01*
X112732812Y-85507809D01*
X112732809Y-85507812D01*
X112646649Y-85622906D01*
X112646645Y-85622913D01*
X112596403Y-85757620D01*
X112596401Y-85757627D01*
X112590000Y-85817155D01*
X106804893Y-85817155D01*
X106720081Y-85732343D01*
X106720076Y-85732339D01*
X106522642Y-85588896D01*
X106522641Y-85588895D01*
X106522639Y-85588894D01*
X106305185Y-85478096D01*
X106073076Y-85402679D01*
X106073074Y-85402678D01*
X106073072Y-85402678D01*
X105875610Y-85371403D01*
X105832027Y-85364500D01*
X105587973Y-85364500D01*
X105544390Y-85371403D01*
X105346927Y-85402678D01*
X105114812Y-85478097D01*
X104897357Y-85588896D01*
X104699923Y-85732339D01*
X104699918Y-85732343D01*
X104527343Y-85904918D01*
X104527339Y-85904923D01*
X104383896Y-86102357D01*
X104273097Y-86319812D01*
X104273096Y-86319814D01*
X104273096Y-86319815D01*
X104235387Y-86435869D01*
X104197678Y-86551927D01*
X104159500Y-86792973D01*
X102259441Y-86792973D01*
X102243099Y-86710818D01*
X102224121Y-86665000D01*
X103120000Y-86665000D01*
X103120000Y-85817172D01*
X103119999Y-85817155D01*
X103113598Y-85757627D01*
X103113596Y-85757620D01*
X103063354Y-85622913D01*
X103063350Y-85622906D01*
X102977190Y-85507812D01*
X102977187Y-85507809D01*
X102862093Y-85421649D01*
X102862086Y-85421645D01*
X102727379Y-85371403D01*
X102727372Y-85371401D01*
X102667844Y-85365000D01*
X101820000Y-85365000D01*
X101820000Y-86260879D01*
X101774182Y-86241901D01*
X101638944Y-86215000D01*
X101501056Y-86215000D01*
X101365818Y-86241901D01*
X101320000Y-86260879D01*
X101320000Y-85365000D01*
X100474000Y-85365000D01*
X100406961Y-85345315D01*
X100361206Y-85292511D01*
X100350000Y-85241000D01*
X100350000Y-84047100D01*
X100369685Y-83980061D01*
X100422489Y-83934306D01*
X100491647Y-83924362D01*
X100555203Y-83953387D01*
X100558341Y-83956309D01*
X100559923Y-83957660D01*
X100590756Y-83980061D01*
X100757361Y-84101106D01*
X100974815Y-84211904D01*
X101206924Y-84287321D01*
X101447973Y-84325500D01*
X101447974Y-84325500D01*
X101692026Y-84325500D01*
X101692027Y-84325500D01*
X101933076Y-84287321D01*
X102165185Y-84211904D01*
X102382639Y-84101106D01*
X102580083Y-83957655D01*
X102752655Y-83785083D01*
X102896106Y-83587639D01*
X103006904Y-83370185D01*
X103082321Y-83138076D01*
X103120500Y-82897027D01*
X103120500Y-82652973D01*
X103082321Y-82411924D01*
X103006904Y-82179815D01*
X102896106Y-81962361D01*
X102877779Y-81937136D01*
X102752660Y-81764923D01*
X102752656Y-81764918D01*
X102580083Y-81592345D01*
X102555272Y-81574319D01*
X102512606Y-81518989D01*
X102506627Y-81449376D01*
X102539232Y-81387580D01*
X102600071Y-81353223D01*
X102628157Y-81350000D01*
X104651843Y-81350000D01*
X104718882Y-81369685D01*
G37*
%TD.AperFunction*%
%TD*%
M02*
