%TF.GenerationSoftware,KiCad,Pcbnew,10.0.4*%
%TF.CreationDate,2026-07-10T01:27:14+03:00*%
%TF.ProjectId,R8 COP Adapter,52382043-4f50-4204-9164-61707465722e,rev?*%
%TF.SameCoordinates,Original*%
%TF.FileFunction,Soldermask,Top*%
%TF.FilePolarity,Negative*%
%FSLAX46Y46*%
G04 Gerber Fmt 4.6, Leading zero omitted, Abs format (unit mm)*
G04 Created by KiCad (PCBNEW 10.0.4) date 2026-07-10 01:27:14*
%MOMM*%
%LPD*%
G01*
G04 APERTURE LIST*
G04 Aperture macros list*
%AMRoundRect*
0 Rectangle with rounded corners*
0 $1 Rounding radius*
0 $2 $3 $4 $5 $6 $7 $8 $9 X,Y pos of 4 corners*
0 Add a 4 corners polygon primitive as box body*
4,1,4,$2,$3,$4,$5,$6,$7,$8,$9,$2,$3,0*
0 Add four circle primitives for the rounded corners*
1,1,$1+$1,$2,$3*
1,1,$1+$1,$4,$5*
1,1,$1+$1,$6,$7*
1,1,$1+$1,$8,$9*
0 Add four rect primitives between the rounded corners*
20,1,$1+$1,$2,$3,$4,$5,0*
20,1,$1+$1,$4,$5,$6,$7,0*
20,1,$1+$1,$6,$7,$8,$9,0*
20,1,$1+$1,$8,$9,$2,$3,0*%
G04 Aperture macros list end*
%ADD10RoundRect,0.150000X0.150000X-0.587500X0.150000X0.587500X-0.150000X0.587500X-0.150000X-0.587500X0*%
%ADD11RoundRect,0.250000X0.450000X-0.262500X0.450000X0.262500X-0.450000X0.262500X-0.450000X-0.262500X0*%
%ADD12C,3.860000*%
%ADD13R,2.100000X2.100000*%
%ADD14C,2.100000*%
%ADD15RoundRect,0.250000X-0.850000X-0.350000X0.850000X-0.350000X0.850000X0.350000X-0.850000X0.350000X0*%
%ADD16RoundRect,0.249997X-2.950003X-2.650003X2.950003X-2.650003X2.950003X2.650003X-2.950003X2.650003X0*%
%ADD17RoundRect,0.250000X0.550000X-0.550000X0.550000X0.550000X-0.550000X0.550000X-0.550000X-0.550000X0*%
%ADD18C,1.600000*%
%ADD19C,4.700000*%
%ADD20C,7.500000*%
%ADD21RoundRect,0.250000X-0.450000X0.262500X-0.450000X-0.262500X0.450000X-0.262500X0.450000X0.262500X0*%
%ADD22RoundRect,0.250000X-0.550000X-0.550000X0.550000X-0.550000X0.550000X0.550000X-0.550000X0.550000X0*%
G04 APERTURE END LIST*
D10*
%TO.C,Q2*%
X126140000Y-97020000D03*
X128040000Y-97020000D03*
X127090000Y-95145000D03*
%TD*%
D11*
%TO.C,R4*%
X124270000Y-101872500D03*
X124270000Y-100047500D03*
%TD*%
%TO.C,R1*%
X120750000Y-101912500D03*
X120750000Y-100087500D03*
%TD*%
D12*
%TO.C,J3*%
X141410000Y-75435000D03*
D13*
X139340000Y-86915000D03*
D14*
X143480000Y-86915000D03*
X139340000Y-82775000D03*
X143480000Y-82775000D03*
%TD*%
D15*
%TO.C,U1*%
X127360000Y-107370000D03*
D16*
X133660000Y-109650000D03*
D15*
X127360000Y-111930000D03*
%TD*%
D17*
%TO.C,C2*%
X122400000Y-108255113D03*
D18*
X122400000Y-106255113D03*
%TD*%
D11*
%TO.C,R6*%
X126970000Y-101872500D03*
X126970000Y-100047500D03*
%TD*%
D19*
%TO.C,GND*%
X104000000Y-99000000D03*
D20*
X104000000Y-99000000D03*
%TD*%
D12*
%TO.C,J5*%
X105810000Y-115630000D03*
D13*
X117290000Y-117700000D03*
D14*
X117290000Y-113560000D03*
X113150000Y-117700000D03*
X113150000Y-113560000D03*
%TD*%
D12*
%TO.C,J4*%
X116210000Y-75435000D03*
D13*
X114140000Y-86915000D03*
D14*
X118280000Y-86915000D03*
X114140000Y-82775000D03*
X118280000Y-82775000D03*
%TD*%
D11*
%TO.C,R2*%
X118050000Y-101912500D03*
X118050000Y-100087500D03*
%TD*%
D19*
%TO.C,GND*%
X141500000Y-99000000D03*
D20*
X141500000Y-99000000D03*
%TD*%
D12*
%TO.C,J2*%
X128740000Y-75455000D03*
D13*
X126670000Y-86935000D03*
D14*
X130810000Y-86935000D03*
X126670000Y-82795000D03*
X130810000Y-82795000D03*
%TD*%
D12*
%TO.C,J1*%
X103640000Y-75435000D03*
D13*
X101570000Y-86915000D03*
D14*
X105710000Y-86915000D03*
X101570000Y-82775000D03*
X105710000Y-82775000D03*
%TD*%
D21*
%TO.C,R5*%
X123840000Y-95320000D03*
X123840000Y-97145000D03*
%TD*%
D22*
%TO.C,C1*%
X124554888Y-116900000D03*
D18*
X126554888Y-116900000D03*
%TD*%
D10*
%TO.C,Q1*%
X116930000Y-97127500D03*
X118830000Y-97127500D03*
X117880000Y-95252500D03*
%TD*%
D21*
%TO.C,R3*%
X121200000Y-95337500D03*
X121200000Y-97162500D03*
%TD*%
M02*
