%TF.GenerationSoftware,KiCad,Pcbnew,10.0.4*%
%TF.CreationDate,2026-07-10T01:27:14+03:00*%
%TF.ProjectId,R8 COP Adapter,52382043-4f50-4204-9164-61707465722e,rev?*%
%TF.SameCoordinates,Original*%
%TF.FileFunction,Copper,L1,Top*%
%TF.FilePolarity,Positive*%
%FSLAX46Y46*%
G04 Gerber Fmt 4.6, Leading zero omitted, Abs format (unit mm)*
G04 Created by KiCad (PCBNEW 10.0.4) date 2026-07-10 01:27:14*
%MOMM*%
%LPD*%
G01*
G04 APERTURE LIST*
G04 Aperture macros list*
%AMRoundRect*
0 Rectangle with rounded corners*
0 $1 Rounding radius*
0 $2 $3 $4 $5 $6 $7 $8 $9 X,Y pos of 4 corners*
0 Add a 4 corners polygon primitive as box body*
4,1,4,$2,$3,$4,$5,$6,$7,$8,$9,$2,$3,0*
0 Add four circle primitives for the rounded corners*
1,1,$1+$1,$2,$3*
1,1,$1+$1,$4,$5*
1,1,$1+$1,$6,$7*
1,1,$1+$1,$8,$9*
0 Add four rect primitives between the rounded corners*
20,1,$1+$1,$2,$3,$4,$5,0*
20,1,$1+$1,$4,$5,$6,$7,0*
20,1,$1+$1,$6,$7,$8,$9,0*
20,1,$1+$1,$8,$9,$2,$3,0*%
G04 Aperture macros list end*
%TA.AperFunction,SMDPad,CuDef*%
%ADD10RoundRect,0.150000X0.150000X-0.587500X0.150000X0.587500X-0.150000X0.587500X-0.150000X-0.587500X0*%
%TD*%
%TA.AperFunction,SMDPad,CuDef*%
%ADD11RoundRect,0.250000X0.450000X-0.262500X0.450000X0.262500X-0.450000X0.262500X-0.450000X-0.262500X0*%
%TD*%
%TA.AperFunction,ComponentPad*%
%ADD12R,2.100000X2.100000*%
%TD*%
%TA.AperFunction,ComponentPad*%
%ADD13C,2.100000*%
%TD*%
%TA.AperFunction,SMDPad,CuDef*%
%ADD14RoundRect,0.250000X-0.850000X-0.350000X0.850000X-0.350000X0.850000X0.350000X-0.850000X0.350000X0*%
%TD*%
%TA.AperFunction,SMDPad,CuDef*%
%ADD15RoundRect,0.249997X-2.950003X-2.650003X2.950003X-2.650003X2.950003X2.650003X-2.950003X2.650003X0*%
%TD*%
%TA.AperFunction,ComponentPad*%
%ADD16RoundRect,0.250000X0.550000X-0.550000X0.550000X0.550000X-0.550000X0.550000X-0.550000X-0.550000X0*%
%TD*%
%TA.AperFunction,ComponentPad*%
%ADD17C,1.600000*%
%TD*%
%TA.AperFunction,ComponentPad*%
%ADD18C,4.700000*%
%TD*%
%TA.AperFunction,ConnectorPad*%
%ADD19C,7.500000*%
%TD*%
%TA.AperFunction,SMDPad,CuDef*%
%ADD20RoundRect,0.250000X-0.450000X0.262500X-0.450000X-0.262500X0.450000X-0.262500X0.450000X0.262500X0*%
%TD*%
%TA.AperFunction,ComponentPad*%
%ADD21RoundRect,0.250000X-0.550000X-0.550000X0.550000X-0.550000X0.550000X0.550000X-0.550000X0.550000X0*%
%TD*%
%TA.AperFunction,ViaPad*%
%ADD22C,0.600000*%
%TD*%
%TA.AperFunction,Conductor*%
%ADD23C,2.000000*%
%TD*%
%TA.AperFunction,Conductor*%
%ADD24C,0.500000*%
%TD*%
%TA.AperFunction,Conductor*%
%ADD25C,0.700000*%
%TD*%
G04 APERTURE END LIST*
D10*
%TO.P,Q2,1,B*%
%TO.N,Net-(Q2-B)*%
X126140000Y-97020000D03*
%TO.P,Q2,2,E*%
%TO.N,+5V*%
X128040000Y-97020000D03*
%TO.P,Q2,3,C*%
%TO.N,COP2_FIRE*%
X127090000Y-95145000D03*
%TD*%
D11*
%TO.P,R4,1*%
%TO.N,IGN2_3*%
X124270000Y-101872500D03*
%TO.P,R4,2*%
%TO.N,Net-(Q2-B)*%
X124270000Y-100047500D03*
%TD*%
%TO.P,R1,1*%
%TO.N,IGN1_4*%
X120750000Y-101912500D03*
%TO.P,R1,2*%
%TO.N,+5V*%
X120750000Y-100087500D03*
%TD*%
D12*
%TO.P,J3,1,1*%
%TO.N,+12V*%
X139340000Y-86915000D03*
D13*
%TO.P,J3,2,2*%
%TO.N,GND*%
X143480000Y-86915000D03*
%TO.P,J3,3,3*%
%TO.N,COP2_FIRE*%
X139340000Y-82775000D03*
%TO.P,J3,4,4*%
%TO.N,GND*%
X143480000Y-82775000D03*
%TD*%
D14*
%TO.P,U1,1,VI*%
%TO.N,+12V*%
X127360000Y-107370000D03*
D15*
%TO.P,U1,2,GND*%
%TO.N,GND*%
X133660000Y-109650000D03*
D14*
%TO.P,U1,3,VO*%
%TO.N,+5V*%
X127360000Y-111930000D03*
%TD*%
D16*
%TO.P,C2,1*%
%TO.N,+5V*%
X122400000Y-108255113D03*
D17*
%TO.P,C2,2*%
%TO.N,GND*%
X122400000Y-106255113D03*
%TD*%
D11*
%TO.P,R6,1*%
%TO.N,IGN2_3*%
X126970000Y-101872500D03*
%TO.P,R6,2*%
%TO.N,+5V*%
X126970000Y-100047500D03*
%TD*%
D18*
%TO.P,GND,1*%
%TO.N,GND*%
X104000000Y-99000000D03*
D19*
X104000000Y-99000000D03*
%TD*%
D12*
%TO.P,J5,1,1*%
%TO.N,+12V*%
X117290000Y-117700000D03*
D13*
%TO.P,J5,2,2*%
X117290000Y-113560000D03*
%TO.P,J5,3,3*%
%TO.N,IGN2_3*%
X113150000Y-117700000D03*
%TO.P,J5,4,4*%
%TO.N,IGN1_4*%
X113150000Y-113560000D03*
%TD*%
D12*
%TO.P,J4,1,1*%
%TO.N,+12V*%
X114140000Y-86915000D03*
D13*
%TO.P,J4,2,2*%
%TO.N,GND*%
X118280000Y-86915000D03*
%TO.P,J4,3,3*%
%TO.N,COP1_FIRE*%
X114140000Y-82775000D03*
%TO.P,J4,4,4*%
%TO.N,GND*%
X118280000Y-82775000D03*
%TD*%
D11*
%TO.P,R2,1*%
%TO.N,IGN1_4*%
X118050000Y-101912500D03*
%TO.P,R2,2*%
%TO.N,Net-(Q1-B)*%
X118050000Y-100087500D03*
%TD*%
D18*
%TO.P,GND,1*%
%TO.N,GND*%
X141500000Y-99000000D03*
D19*
X141500000Y-99000000D03*
%TD*%
D12*
%TO.P,J2,1,1*%
%TO.N,+12V*%
X126670000Y-86935000D03*
D13*
%TO.P,J2,2,2*%
%TO.N,GND*%
X130810000Y-86935000D03*
%TO.P,J2,3,3*%
%TO.N,COP2_FIRE*%
X126670000Y-82795000D03*
%TO.P,J2,4,4*%
%TO.N,GND*%
X130810000Y-82795000D03*
%TD*%
D12*
%TO.P,J1,1,1*%
%TO.N,+12V*%
X101570000Y-86915000D03*
D13*
%TO.P,J1,2,2*%
%TO.N,GND*%
X105710000Y-86915000D03*
%TO.P,J1,3,3*%
%TO.N,COP1_FIRE*%
X101570000Y-82775000D03*
%TO.P,J1,4,4*%
%TO.N,GND*%
X105710000Y-82775000D03*
%TD*%
D20*
%TO.P,R5,1*%
%TO.N,COP2_FIRE*%
X123840000Y-95320000D03*
%TO.P,R5,2*%
%TO.N,GND*%
X123840000Y-97145000D03*
%TD*%
D21*
%TO.P,C1,1*%
%TO.N,+12V*%
X124554888Y-116900000D03*
D17*
%TO.P,C1,2*%
%TO.N,GND*%
X126554888Y-116900000D03*
%TD*%
D10*
%TO.P,Q1,1,B*%
%TO.N,Net-(Q1-B)*%
X116930000Y-97127500D03*
%TO.P,Q1,2,E*%
%TO.N,+5V*%
X118830000Y-97127500D03*
%TO.P,Q1,3,C*%
%TO.N,COP1_FIRE*%
X117880000Y-95252500D03*
%TD*%
D20*
%TO.P,R3,1*%
%TO.N,COP1_FIRE*%
X121200000Y-95337500D03*
%TO.P,R3,2*%
%TO.N,GND*%
X121200000Y-97162500D03*
%TD*%
D22*
%TO.N,GND*%
X122550000Y-98500000D03*
%TO.N,+5V*%
X119756250Y-99093750D03*
%TD*%
%TO.N,GND*%
D23*
X105710000Y-82775000D02*
X105710000Y-86915000D01*
D24*
X123822500Y-97162500D02*
X123840000Y-97145000D01*
D23*
X118280000Y-88770000D02*
X108050000Y-99000000D01*
X108050000Y-99000000D02*
X104000000Y-99000000D01*
D25*
X133660000Y-109650000D02*
X133660000Y-110840000D01*
D23*
X118280000Y-86915000D02*
X118280000Y-88770000D01*
X105710000Y-86915000D02*
X105710000Y-97290000D01*
D24*
X122600000Y-97162500D02*
X123822500Y-97162500D01*
D25*
X127600000Y-116900000D02*
X126554888Y-116900000D01*
D23*
X143480000Y-82775000D02*
X143480000Y-86915000D01*
X143480000Y-86915000D02*
X143480000Y-96520000D01*
D24*
X122600000Y-98450000D02*
X122550000Y-98500000D01*
D25*
X133660000Y-110840000D02*
X127600000Y-116900000D01*
D23*
X143480000Y-96520000D02*
X141000000Y-99000000D01*
D24*
X121200000Y-97162500D02*
X122600000Y-97162500D01*
D23*
X130810000Y-86935000D02*
X130810000Y-88810000D01*
X130810000Y-88810000D02*
X141000000Y-99000000D01*
X105710000Y-97290000D02*
X104000000Y-99000000D01*
X130810000Y-82795000D02*
X130810000Y-86935000D01*
D24*
X122600000Y-97162500D02*
X122600000Y-98450000D01*
D23*
X118280000Y-82775000D02*
X118280000Y-86915000D01*
%TO.N,COP1_FIRE*%
D24*
X119850000Y-80150000D02*
X114800000Y-80150000D01*
X114140000Y-82775000D02*
X114140000Y-80810000D01*
X121200000Y-81500000D02*
X119850000Y-80150000D01*
X117880000Y-95252500D02*
X121115000Y-95252500D01*
X121115000Y-95252500D02*
X121200000Y-95337500D01*
X114140000Y-80810000D02*
X114800000Y-80150000D01*
X104195000Y-80150000D02*
X101570000Y-82775000D01*
X114800000Y-80150000D02*
X104195000Y-80150000D01*
X121200000Y-95337500D02*
X121200000Y-81500000D01*
%TO.N,+12V*%
D25*
X127950000Y-114300000D02*
X129400000Y-112850000D01*
X124554888Y-116900000D02*
X124554888Y-115895112D01*
X124554888Y-115895112D02*
X126150000Y-114300000D01*
X129350000Y-109360000D02*
X127360000Y-107370000D01*
X126150000Y-114300000D02*
X127950000Y-114300000D01*
X129400000Y-112850000D02*
X129350000Y-112800000D01*
X129350000Y-112800000D02*
X129350000Y-109360000D01*
%TO.N,COP2_FIRE*%
D24*
X126670000Y-82795000D02*
X124605000Y-82795000D01*
X126915000Y-95320000D02*
X127090000Y-95145000D01*
X124605000Y-82795000D02*
X123840000Y-83560000D01*
X139340000Y-82775000D02*
X136465000Y-79900000D01*
X123840000Y-95320000D02*
X126915000Y-95320000D01*
X123840000Y-83560000D02*
X123840000Y-95320000D01*
X129565000Y-79900000D02*
X126670000Y-82795000D01*
X136465000Y-79900000D02*
X129565000Y-79900000D01*
%TO.N,IGN2_3*%
X115200000Y-115650000D02*
X115200000Y-112850000D01*
X119200000Y-108850000D02*
X119200000Y-104550000D01*
X123377500Y-101872500D02*
X124270000Y-101872500D01*
X113150000Y-117700000D02*
X115200000Y-115650000D01*
X119200000Y-104550000D02*
X119950000Y-103800000D01*
X124270000Y-101872500D02*
X126970000Y-101872500D01*
X121450000Y-103800000D02*
X123377500Y-101872500D01*
X115200000Y-112850000D02*
X119200000Y-108850000D01*
X119950000Y-103800000D02*
X121450000Y-103800000D01*
%TO.N,IGN1_4*%
X118050000Y-101912500D02*
X120750000Y-101912500D01*
X118050000Y-108660000D02*
X113150000Y-113560000D01*
X118050000Y-101912500D02*
X118050000Y-108660000D01*
%TO.N,Net-(Q1-B)*%
X116930000Y-98967500D02*
X118050000Y-100087500D01*
X116930000Y-97127500D02*
X116930000Y-98967500D01*
%TO.N,+5V*%
X128037500Y-100047500D02*
X126970000Y-100047500D01*
X128500000Y-102950000D02*
X123194887Y-108255113D01*
D25*
X127360000Y-111930000D02*
X126074887Y-111930000D01*
D24*
X128040000Y-98140000D02*
X128040000Y-97020000D01*
X128500000Y-100050000D02*
X128500000Y-98600000D01*
D25*
X126074887Y-111930000D02*
X122400000Y-108255113D01*
D24*
X128040000Y-100050000D02*
X128037500Y-100047500D01*
X118830000Y-98167500D02*
X119756250Y-99093750D01*
X118830000Y-97127500D02*
X118830000Y-98167500D01*
X128500000Y-98600000D02*
X128040000Y-98140000D01*
X123194887Y-108255113D02*
X122400000Y-108255113D01*
X128500000Y-100900000D02*
X128500000Y-102950000D01*
X128040000Y-100050000D02*
X128500000Y-100050000D01*
X119756250Y-99093750D02*
X120750000Y-100087500D01*
X128500000Y-100900000D02*
X128500000Y-100050000D01*
%TO.N,Net-(Q2-B)*%
X126140000Y-98177500D02*
X124270000Y-100047500D01*
X126140000Y-97020000D02*
X126140000Y-98177500D01*
%TD*%
%TA.AperFunction,Conductor*%
%TO.N,GND*%
G36*
X136469309Y-80969685D02*
G01*
X136489951Y-80986319D01*
X137795587Y-82291955D01*
X137829072Y-82353278D01*
X137828484Y-82408564D01*
X137827680Y-82411912D01*
X137789500Y-82652973D01*
X137789500Y-82897026D01*
X137826170Y-83128553D01*
X137827679Y-83138076D01*
X137903096Y-83370185D01*
X138013762Y-83587380D01*
X138013896Y-83587642D01*
X138157339Y-83785076D01*
X138157343Y-83785081D01*
X138329918Y-83957656D01*
X138329923Y-83957660D01*
X138434248Y-84033456D01*
X138527361Y-84101106D01*
X138744815Y-84211904D01*
X138976924Y-84287321D01*
X139217973Y-84325500D01*
X139217974Y-84325500D01*
X139462026Y-84325500D01*
X139462027Y-84325500D01*
X139703076Y-84287321D01*
X139935185Y-84211904D01*
X140152639Y-84101106D01*
X140350083Y-83957655D01*
X140522655Y-83785083D01*
X140666106Y-83587639D01*
X140776904Y-83370185D01*
X140852321Y-83138076D01*
X140890500Y-82897027D01*
X140890500Y-82653006D01*
X141930000Y-82653006D01*
X141930000Y-82896993D01*
X141968165Y-83137959D01*
X142043560Y-83369998D01*
X142154323Y-83587380D01*
X142221543Y-83679901D01*
X142221544Y-83679902D01*
X142840690Y-83060756D01*
X142859668Y-83106574D01*
X142936274Y-83221224D01*
X143033776Y-83318726D01*
X143148426Y-83395332D01*
X143194242Y-83414309D01*
X142575096Y-84033454D01*
X142575097Y-84033456D01*
X142667619Y-84100676D01*
X142885001Y-84211439D01*
X143117040Y-84286834D01*
X143358007Y-84325000D01*
X143601993Y-84325000D01*
X143842959Y-84286834D01*
X144074998Y-84211439D01*
X144292377Y-84100678D01*
X144384901Y-84033454D01*
X144384902Y-84033454D01*
X143765757Y-83414309D01*
X143811574Y-83395332D01*
X143926224Y-83318726D01*
X144023726Y-83221224D01*
X144100332Y-83106574D01*
X144119309Y-83060757D01*
X144738454Y-83679902D01*
X144738454Y-83679901D01*
X144805678Y-83587377D01*
X144916439Y-83369998D01*
X144991834Y-83137959D01*
X145030000Y-82896993D01*
X145030000Y-82653006D01*
X144991834Y-82412040D01*
X144916439Y-82180001D01*
X144805676Y-81962619D01*
X144738456Y-81870097D01*
X144738454Y-81870096D01*
X144119309Y-82489241D01*
X144100332Y-82443426D01*
X144023726Y-82328776D01*
X143926224Y-82231274D01*
X143811574Y-82154668D01*
X143765756Y-82135689D01*
X144384902Y-81516544D01*
X144384901Y-81516543D01*
X144292380Y-81449323D01*
X144074998Y-81338560D01*
X143842959Y-81263165D01*
X143601993Y-81225000D01*
X143358007Y-81225000D01*
X143117040Y-81263165D01*
X142885001Y-81338560D01*
X142667626Y-81449319D01*
X142575097Y-81516544D01*
X143194243Y-82135689D01*
X143148426Y-82154668D01*
X143033776Y-82231274D01*
X142936274Y-82328776D01*
X142859668Y-82443426D01*
X142840690Y-82489243D01*
X142221544Y-81870097D01*
X142154319Y-81962626D01*
X142043560Y-82180001D01*
X141968165Y-82412040D01*
X141930000Y-82653006D01*
X140890500Y-82653006D01*
X140890500Y-82652973D01*
X140852321Y-82411924D01*
X140776904Y-82179815D01*
X140666106Y-81962361D01*
X140613603Y-81890096D01*
X140522660Y-81764923D01*
X140522656Y-81764918D01*
X140350081Y-81592343D01*
X140350076Y-81592339D01*
X140152642Y-81448896D01*
X140152641Y-81448895D01*
X140152639Y-81448894D01*
X139935185Y-81338096D01*
X139703076Y-81262679D01*
X139703074Y-81262678D01*
X139703072Y-81262678D01*
X139500458Y-81230587D01*
X139462027Y-81224500D01*
X139217973Y-81224500D01*
X139181921Y-81230210D01*
X138976912Y-81262680D01*
X138973564Y-81263484D01*
X138972255Y-81263418D01*
X138972112Y-81263441D01*
X138972107Y-81263410D01*
X138903782Y-81259983D01*
X138856955Y-81230587D01*
X138788049Y-81161681D01*
X138754564Y-81100358D01*
X138759548Y-81030666D01*
X138801420Y-80974733D01*
X138866884Y-80950316D01*
X138875730Y-80950000D01*
X145048638Y-80950000D01*
X145115677Y-80969685D01*
X145136319Y-80986319D01*
X146213681Y-82063681D01*
X146247166Y-82125004D01*
X146250000Y-82151362D01*
X146250000Y-101198638D01*
X146230315Y-101265677D01*
X146213681Y-101286319D01*
X144486319Y-103013681D01*
X144424996Y-103047166D01*
X144398638Y-103050000D01*
X138051362Y-103050000D01*
X137984323Y-103030315D01*
X137963681Y-103013681D01*
X129236319Y-94286319D01*
X129202834Y-94224996D01*
X129200000Y-94198638D01*
X129200000Y-87705863D01*
X129219685Y-87638824D01*
X129272489Y-87593069D01*
X129341647Y-87583125D01*
X129405203Y-87612150D01*
X129434485Y-87649568D01*
X129484323Y-87747381D01*
X129551543Y-87839901D01*
X129551544Y-87839902D01*
X130170690Y-87220756D01*
X130189668Y-87266574D01*
X130266274Y-87381224D01*
X130363776Y-87478726D01*
X130478426Y-87555332D01*
X130524242Y-87574309D01*
X129905096Y-88193454D01*
X129905097Y-88193456D01*
X129997619Y-88260676D01*
X130215001Y-88371439D01*
X130447040Y-88446834D01*
X130688007Y-88485000D01*
X130931993Y-88485000D01*
X131172959Y-88446834D01*
X131404998Y-88371439D01*
X131622377Y-88260678D01*
X131714901Y-88193454D01*
X131714902Y-88193454D01*
X131095757Y-87574309D01*
X131141574Y-87555332D01*
X131256224Y-87478726D01*
X131353726Y-87381224D01*
X131430332Y-87266574D01*
X131449309Y-87220757D01*
X132068454Y-87839902D01*
X132068454Y-87839901D01*
X132135678Y-87747377D01*
X132246439Y-87529998D01*
X132321834Y-87297959D01*
X132360000Y-87056993D01*
X132360000Y-86813006D01*
X132321834Y-86572040D01*
X132246439Y-86340001D01*
X132135676Y-86122619D01*
X132068456Y-86030097D01*
X132068454Y-86030096D01*
X131449309Y-86649241D01*
X131430332Y-86603426D01*
X131353726Y-86488776D01*
X131256224Y-86391274D01*
X131141574Y-86314668D01*
X131095756Y-86295689D01*
X131574312Y-85817135D01*
X137789500Y-85817135D01*
X137789500Y-88012870D01*
X137789501Y-88012876D01*
X137795908Y-88072483D01*
X137846202Y-88207328D01*
X137846206Y-88207335D01*
X137932452Y-88322544D01*
X137932455Y-88322547D01*
X138047664Y-88408793D01*
X138047671Y-88408797D01*
X138182517Y-88459091D01*
X138182516Y-88459091D01*
X138189444Y-88459835D01*
X138242127Y-88465500D01*
X140437872Y-88465499D01*
X140497483Y-88459091D01*
X140632331Y-88408796D01*
X140747546Y-88322546D01*
X140833796Y-88207331D01*
X140884091Y-88072483D01*
X140890500Y-88012873D01*
X140890499Y-86793006D01*
X141930000Y-86793006D01*
X141930000Y-87036993D01*
X141968165Y-87277959D01*
X142043560Y-87509998D01*
X142154323Y-87727380D01*
X142221543Y-87819901D01*
X142221544Y-87819902D01*
X142840690Y-87200756D01*
X142859668Y-87246574D01*
X142936274Y-87361224D01*
X143033776Y-87458726D01*
X143148426Y-87535332D01*
X143194242Y-87554309D01*
X142575096Y-88173454D01*
X142575097Y-88173456D01*
X142667619Y-88240676D01*
X142885001Y-88351439D01*
X143117040Y-88426834D01*
X143358007Y-88465000D01*
X143601993Y-88465000D01*
X143842959Y-88426834D01*
X144074998Y-88351439D01*
X144292377Y-88240678D01*
X144384901Y-88173454D01*
X144384902Y-88173454D01*
X143765757Y-87554309D01*
X143811574Y-87535332D01*
X143926224Y-87458726D01*
X144023726Y-87361224D01*
X144100332Y-87246574D01*
X144119309Y-87200757D01*
X144738454Y-87819902D01*
X144738454Y-87819901D01*
X144805678Y-87727377D01*
X144916439Y-87509998D01*
X144991834Y-87277959D01*
X145030000Y-87036993D01*
X145030000Y-86793006D01*
X144991834Y-86552040D01*
X144916439Y-86320001D01*
X144805676Y-86102619D01*
X144738456Y-86010097D01*
X144738454Y-86010096D01*
X144119309Y-86629241D01*
X144100332Y-86583426D01*
X144023726Y-86468776D01*
X143926224Y-86371274D01*
X143811574Y-86294668D01*
X143765756Y-86275689D01*
X144384902Y-85656544D01*
X144384901Y-85656543D01*
X144292380Y-85589323D01*
X144074998Y-85478560D01*
X143842959Y-85403165D01*
X143601993Y-85365000D01*
X143358007Y-85365000D01*
X143117040Y-85403165D01*
X142885001Y-85478560D01*
X142667626Y-85589319D01*
X142575097Y-85656544D01*
X143194243Y-86275689D01*
X143148426Y-86294668D01*
X143033776Y-86371274D01*
X142936274Y-86468776D01*
X142859668Y-86583426D01*
X142840690Y-86629243D01*
X142221544Y-86010097D01*
X142154319Y-86102626D01*
X142043560Y-86320001D01*
X141968165Y-86552040D01*
X141930000Y-86793006D01*
X140890499Y-86793006D01*
X140890499Y-85817128D01*
X140884091Y-85757517D01*
X140833796Y-85622669D01*
X140833795Y-85622668D01*
X140833793Y-85622664D01*
X140747547Y-85507455D01*
X140747544Y-85507452D01*
X140632335Y-85421206D01*
X140632328Y-85421202D01*
X140497482Y-85370908D01*
X140497483Y-85370908D01*
X140437883Y-85364501D01*
X140437881Y-85364500D01*
X140437873Y-85364500D01*
X140437864Y-85364500D01*
X138242129Y-85364500D01*
X138242123Y-85364501D01*
X138182516Y-85370908D01*
X138047671Y-85421202D01*
X138047664Y-85421206D01*
X137932455Y-85507452D01*
X137932452Y-85507455D01*
X137846206Y-85622664D01*
X137846202Y-85622671D01*
X137795908Y-85757517D01*
X137789501Y-85817116D01*
X137789501Y-85817123D01*
X137789500Y-85817135D01*
X131574312Y-85817135D01*
X131665322Y-85726125D01*
X131714902Y-85676544D01*
X131714901Y-85676543D01*
X131622380Y-85609323D01*
X131404998Y-85498560D01*
X131172959Y-85423165D01*
X130931993Y-85385000D01*
X130688007Y-85385000D01*
X130447040Y-85423165D01*
X130215001Y-85498560D01*
X129997626Y-85609319D01*
X129905097Y-85676544D01*
X130524243Y-86295689D01*
X130478426Y-86314668D01*
X130363776Y-86391274D01*
X130266274Y-86488776D01*
X130189668Y-86603426D01*
X130170690Y-86649243D01*
X129551544Y-86030097D01*
X129484319Y-86122626D01*
X129434485Y-86220431D01*
X129386510Y-86271227D01*
X129318689Y-86288022D01*
X129252554Y-86265484D01*
X129209103Y-86210769D01*
X129200000Y-86164136D01*
X129200000Y-83565863D01*
X129219685Y-83498824D01*
X129272489Y-83453069D01*
X129341647Y-83443125D01*
X129405203Y-83472150D01*
X129434485Y-83509568D01*
X129484323Y-83607381D01*
X129551543Y-83699901D01*
X129551544Y-83699902D01*
X130170690Y-83080756D01*
X130189668Y-83126574D01*
X130266274Y-83241224D01*
X130363776Y-83338726D01*
X130478426Y-83415332D01*
X130524242Y-83434309D01*
X129905096Y-84053454D01*
X129905097Y-84053456D01*
X129997619Y-84120676D01*
X130215001Y-84231439D01*
X130447040Y-84306834D01*
X130688007Y-84345000D01*
X130931993Y-84345000D01*
X131172959Y-84306834D01*
X131404998Y-84231439D01*
X131622377Y-84120678D01*
X131714901Y-84053454D01*
X131714902Y-84053454D01*
X131095757Y-83434309D01*
X131141574Y-83415332D01*
X131256224Y-83338726D01*
X131353726Y-83241224D01*
X131430332Y-83126574D01*
X131449309Y-83080757D01*
X132068454Y-83699902D01*
X132068454Y-83699901D01*
X132135678Y-83607377D01*
X132246439Y-83389998D01*
X132321834Y-83157959D01*
X132360000Y-82916993D01*
X132360000Y-82673006D01*
X132321834Y-82432040D01*
X132246439Y-82200001D01*
X132135676Y-81982619D01*
X132068456Y-81890097D01*
X132068454Y-81890096D01*
X131449309Y-82509241D01*
X131430332Y-82463426D01*
X131353726Y-82348776D01*
X131256224Y-82251274D01*
X131141574Y-82174668D01*
X131095756Y-82155689D01*
X131714902Y-81536544D01*
X131714901Y-81536543D01*
X131622380Y-81469323D01*
X131404998Y-81358560D01*
X131172959Y-81283165D01*
X130931993Y-81245000D01*
X130688007Y-81245000D01*
X130447040Y-81283165D01*
X130215001Y-81358560D01*
X129997626Y-81469319D01*
X129905097Y-81536544D01*
X130524243Y-82155689D01*
X130478426Y-82174668D01*
X130363776Y-82251274D01*
X130266274Y-82348776D01*
X130189668Y-82463426D01*
X130170690Y-82509243D01*
X129551544Y-81890097D01*
X129484319Y-81982626D01*
X129434485Y-82080431D01*
X129386510Y-82131227D01*
X129318689Y-82148022D01*
X129252554Y-82125484D01*
X129209103Y-82070769D01*
X129200000Y-82024136D01*
X129200000Y-81401362D01*
X129219685Y-81334323D01*
X129236319Y-81313681D01*
X129563681Y-80986319D01*
X129625004Y-80952834D01*
X129651362Y-80950000D01*
X136402270Y-80950000D01*
X136469309Y-80969685D01*
G37*
%TD.AperFunction*%
%TD*%
%TA.AperFunction,Conductor*%
%TO.N,GND*%
G36*
X104788551Y-81319685D02*
G01*
X104834306Y-81372489D01*
X104844250Y-81441647D01*
X104815225Y-81505203D01*
X104805271Y-81514338D01*
X104805097Y-81516544D01*
X105424243Y-82135689D01*
X105378426Y-82154668D01*
X105263776Y-82231274D01*
X105166274Y-82328776D01*
X105089668Y-82443426D01*
X105070690Y-82489243D01*
X104451544Y-81870097D01*
X104384319Y-81962626D01*
X104273560Y-82180001D01*
X104198165Y-82412040D01*
X104160000Y-82653006D01*
X104160000Y-82896993D01*
X104198165Y-83137959D01*
X104273560Y-83369998D01*
X104384323Y-83587380D01*
X104451543Y-83679901D01*
X104451544Y-83679902D01*
X105070690Y-83060756D01*
X105089668Y-83106574D01*
X105166274Y-83221224D01*
X105263776Y-83318726D01*
X105378426Y-83395332D01*
X105424242Y-83414309D01*
X104805096Y-84033454D01*
X104805097Y-84033456D01*
X104897619Y-84100676D01*
X105115001Y-84211439D01*
X105347040Y-84286834D01*
X105588007Y-84325000D01*
X105831993Y-84325000D01*
X106072959Y-84286834D01*
X106304998Y-84211439D01*
X106522377Y-84100678D01*
X106614901Y-84033454D01*
X106614902Y-84033454D01*
X105995757Y-83414309D01*
X106041574Y-83395332D01*
X106156224Y-83318726D01*
X106253726Y-83221224D01*
X106330332Y-83106574D01*
X106349309Y-83060757D01*
X106968454Y-83679902D01*
X106968454Y-83679901D01*
X107035678Y-83587377D01*
X107146439Y-83369998D01*
X107221834Y-83137959D01*
X107260000Y-82896993D01*
X107260000Y-82653006D01*
X107221834Y-82412040D01*
X107146439Y-82180001D01*
X107035676Y-81962619D01*
X106968456Y-81870097D01*
X106968454Y-81870096D01*
X106349309Y-82489241D01*
X106330332Y-82443426D01*
X106253726Y-82328776D01*
X106156224Y-82231274D01*
X106041574Y-82154668D01*
X105995756Y-82135689D01*
X106614902Y-81516544D01*
X106614367Y-81509748D01*
X106582937Y-81468989D01*
X106576958Y-81399376D01*
X106609563Y-81337580D01*
X106670401Y-81303223D01*
X106698488Y-81300000D01*
X113150662Y-81300000D01*
X113217701Y-81319685D01*
X113263456Y-81372489D01*
X113273400Y-81441647D01*
X113244375Y-81505203D01*
X113223547Y-81524318D01*
X113129923Y-81592339D01*
X113129918Y-81592343D01*
X112957343Y-81764918D01*
X112957339Y-81764923D01*
X112813896Y-81962357D01*
X112703097Y-82179812D01*
X112627678Y-82411927D01*
X112589500Y-82652973D01*
X112589500Y-82897026D01*
X112626170Y-83128553D01*
X112627679Y-83138076D01*
X112703096Y-83370185D01*
X112813762Y-83587380D01*
X112813896Y-83587642D01*
X112957339Y-83785076D01*
X112957343Y-83785081D01*
X113129918Y-83957656D01*
X113129923Y-83957660D01*
X113234248Y-84033456D01*
X113327361Y-84101106D01*
X113544815Y-84211904D01*
X113776924Y-84287321D01*
X114017973Y-84325500D01*
X114017974Y-84325500D01*
X114262026Y-84325500D01*
X114262027Y-84325500D01*
X114503076Y-84287321D01*
X114735185Y-84211904D01*
X114952639Y-84101106D01*
X115150083Y-83957655D01*
X115322655Y-83785083D01*
X115466106Y-83587639D01*
X115576904Y-83370185D01*
X115652321Y-83138076D01*
X115690500Y-82897027D01*
X115690500Y-82652973D01*
X115652321Y-82411924D01*
X115576904Y-82179815D01*
X115466106Y-81962361D01*
X115447779Y-81937136D01*
X115322660Y-81764923D01*
X115322656Y-81764918D01*
X115150081Y-81592343D01*
X115150076Y-81592339D01*
X115056453Y-81524318D01*
X115013787Y-81468988D01*
X115007808Y-81399375D01*
X115040414Y-81337580D01*
X115101252Y-81303223D01*
X115129338Y-81300000D01*
X117291512Y-81300000D01*
X117358551Y-81319685D01*
X117404306Y-81372489D01*
X117414250Y-81441647D01*
X117385225Y-81505203D01*
X117375271Y-81514338D01*
X117375097Y-81516544D01*
X117994243Y-82135689D01*
X117948426Y-82154668D01*
X117833776Y-82231274D01*
X117736274Y-82328776D01*
X117659668Y-82443426D01*
X117640690Y-82489243D01*
X117021544Y-81870097D01*
X116954319Y-81962626D01*
X116843560Y-82180001D01*
X116768165Y-82412040D01*
X116730000Y-82653006D01*
X116730000Y-82896993D01*
X116768165Y-83137959D01*
X116843560Y-83369998D01*
X116954323Y-83587380D01*
X117021543Y-83679901D01*
X117021544Y-83679902D01*
X117640690Y-83060756D01*
X117659668Y-83106574D01*
X117736274Y-83221224D01*
X117833776Y-83318726D01*
X117948426Y-83395332D01*
X117994242Y-83414309D01*
X117375096Y-84033454D01*
X117375097Y-84033456D01*
X117467619Y-84100676D01*
X117685001Y-84211439D01*
X117917040Y-84286834D01*
X118158007Y-84325000D01*
X118401993Y-84325000D01*
X118642959Y-84286834D01*
X118874998Y-84211439D01*
X119092377Y-84100678D01*
X119184901Y-84033454D01*
X119184902Y-84033454D01*
X118565757Y-83414309D01*
X118611574Y-83395332D01*
X118726224Y-83318726D01*
X118823726Y-83221224D01*
X118900332Y-83106574D01*
X118919309Y-83060756D01*
X119538454Y-83679902D01*
X119538454Y-83679901D01*
X119575682Y-83628663D01*
X119631012Y-83585998D01*
X119700625Y-83580019D01*
X119762420Y-83612625D01*
X119796778Y-83673464D01*
X119800000Y-83701549D01*
X119800000Y-85988449D01*
X119780315Y-86055488D01*
X119727511Y-86101243D01*
X119658353Y-86111187D01*
X119594797Y-86082162D01*
X119575682Y-86061334D01*
X119538456Y-86010097D01*
X119538454Y-86010096D01*
X118919309Y-86629241D01*
X118900332Y-86583426D01*
X118823726Y-86468776D01*
X118726224Y-86371274D01*
X118611574Y-86294668D01*
X118565756Y-86275689D01*
X119184902Y-85656544D01*
X119184901Y-85656543D01*
X119092380Y-85589323D01*
X118874998Y-85478560D01*
X118642959Y-85403165D01*
X118401993Y-85365000D01*
X118158007Y-85365000D01*
X117917040Y-85403165D01*
X117685001Y-85478560D01*
X117467626Y-85589319D01*
X117375097Y-85656544D01*
X117994243Y-86275689D01*
X117948426Y-86294668D01*
X117833776Y-86371274D01*
X117736274Y-86468776D01*
X117659668Y-86583426D01*
X117640690Y-86629243D01*
X117021544Y-86010097D01*
X116954319Y-86102626D01*
X116843560Y-86320001D01*
X116768165Y-86552040D01*
X116730000Y-86793006D01*
X116730000Y-87036993D01*
X116768165Y-87277959D01*
X116843560Y-87509998D01*
X116954323Y-87727380D01*
X117021543Y-87819901D01*
X117021544Y-87819902D01*
X117640690Y-87200756D01*
X117659668Y-87246574D01*
X117736274Y-87361224D01*
X117833776Y-87458726D01*
X117948426Y-87535332D01*
X117994242Y-87554309D01*
X117375096Y-88173454D01*
X117375097Y-88173456D01*
X117467619Y-88240676D01*
X117685001Y-88351439D01*
X117917040Y-88426834D01*
X118158007Y-88465000D01*
X118401993Y-88465000D01*
X118642959Y-88426834D01*
X118874998Y-88351439D01*
X119092377Y-88240678D01*
X119184901Y-88173454D01*
X119184902Y-88173454D01*
X118565757Y-87554309D01*
X118611574Y-87535332D01*
X118726224Y-87458726D01*
X118823726Y-87361224D01*
X118900332Y-87246574D01*
X118919309Y-87200757D01*
X119538454Y-87819902D01*
X119538454Y-87819901D01*
X119575682Y-87768663D01*
X119631012Y-87725998D01*
X119700625Y-87720019D01*
X119762420Y-87752625D01*
X119796778Y-87813464D01*
X119800000Y-87841549D01*
X119800000Y-90298638D01*
X119780315Y-90365677D01*
X119763681Y-90386319D01*
X115950000Y-94199999D01*
X115950000Y-95848638D01*
X115930315Y-95915677D01*
X115913681Y-95936319D01*
X107786319Y-104063681D01*
X107724996Y-104097166D01*
X107698638Y-104100000D01*
X101301362Y-104100000D01*
X101234323Y-104080315D01*
X101213681Y-104063681D01*
X100036319Y-102886319D01*
X100002834Y-102824996D01*
X100000000Y-102798638D01*
X100000000Y-92801362D01*
X100019685Y-92734323D01*
X100036319Y-92713681D01*
X103800000Y-88950000D01*
X103800000Y-86793006D01*
X104160000Y-86793006D01*
X104160000Y-87036993D01*
X104198165Y-87277959D01*
X104273560Y-87509998D01*
X104384323Y-87727380D01*
X104451543Y-87819901D01*
X104451544Y-87819902D01*
X105070690Y-87200756D01*
X105089668Y-87246574D01*
X105166274Y-87361224D01*
X105263776Y-87458726D01*
X105378426Y-87535332D01*
X105424242Y-87554309D01*
X104805096Y-88173454D01*
X104805097Y-88173456D01*
X104897619Y-88240676D01*
X105115001Y-88351439D01*
X105347040Y-88426834D01*
X105588007Y-88465000D01*
X105831993Y-88465000D01*
X106072959Y-88426834D01*
X106304998Y-88351439D01*
X106522377Y-88240678D01*
X106614901Y-88173454D01*
X106614902Y-88173454D01*
X105995757Y-87554309D01*
X106041574Y-87535332D01*
X106156224Y-87458726D01*
X106253726Y-87361224D01*
X106330332Y-87246574D01*
X106349309Y-87200757D01*
X106968454Y-87819902D01*
X106968454Y-87819901D01*
X107035678Y-87727377D01*
X107146439Y-87509998D01*
X107221834Y-87277959D01*
X107260000Y-87036993D01*
X107260000Y-86793006D01*
X107221834Y-86552040D01*
X107146439Y-86320001D01*
X107035676Y-86102619D01*
X106968456Y-86010097D01*
X106968454Y-86010096D01*
X106349309Y-86629241D01*
X106330332Y-86583426D01*
X106253726Y-86468776D01*
X106156224Y-86371274D01*
X106041574Y-86294668D01*
X105995756Y-86275689D01*
X106454312Y-85817135D01*
X112589500Y-85817135D01*
X112589500Y-88012870D01*
X112589501Y-88012876D01*
X112595908Y-88072483D01*
X112646202Y-88207328D01*
X112646206Y-88207335D01*
X112732452Y-88322544D01*
X112732455Y-88322547D01*
X112847664Y-88408793D01*
X112847671Y-88408797D01*
X112982517Y-88459091D01*
X112982516Y-88459091D01*
X112989444Y-88459835D01*
X113042127Y-88465500D01*
X115237872Y-88465499D01*
X115297483Y-88459091D01*
X115432331Y-88408796D01*
X115547546Y-88322546D01*
X115633796Y-88207331D01*
X115684091Y-88072483D01*
X115690500Y-88012873D01*
X115690499Y-85817128D01*
X115684091Y-85757517D01*
X115633796Y-85622669D01*
X115633795Y-85622668D01*
X115633793Y-85622664D01*
X115547547Y-85507455D01*
X115547544Y-85507452D01*
X115432335Y-85421206D01*
X115432328Y-85421202D01*
X115297482Y-85370908D01*
X115297483Y-85370908D01*
X115237883Y-85364501D01*
X115237881Y-85364500D01*
X115237873Y-85364500D01*
X115237864Y-85364500D01*
X113042129Y-85364500D01*
X113042123Y-85364501D01*
X112982516Y-85370908D01*
X112847671Y-85421202D01*
X112847664Y-85421206D01*
X112732455Y-85507452D01*
X112732452Y-85507455D01*
X112646206Y-85622664D01*
X112646202Y-85622671D01*
X112595908Y-85757517D01*
X112589501Y-85817116D01*
X112589501Y-85817123D01*
X112589500Y-85817135D01*
X106454312Y-85817135D01*
X106545322Y-85726125D01*
X106614902Y-85656544D01*
X106614901Y-85656543D01*
X106522380Y-85589323D01*
X106304998Y-85478560D01*
X106072959Y-85403165D01*
X105831993Y-85365000D01*
X105588007Y-85365000D01*
X105347040Y-85403165D01*
X105115001Y-85478560D01*
X104897626Y-85589319D01*
X104805097Y-85656544D01*
X105424243Y-86275689D01*
X105378426Y-86294668D01*
X105263776Y-86371274D01*
X105166274Y-86468776D01*
X105089668Y-86583426D01*
X105070690Y-86629243D01*
X104451544Y-86010097D01*
X104384319Y-86102626D01*
X104273560Y-86320001D01*
X104198165Y-86552040D01*
X104160000Y-86793006D01*
X103800000Y-86793006D01*
X103800000Y-82045870D01*
X103819685Y-81978831D01*
X103829848Y-81965177D01*
X104362884Y-81343302D01*
X104421459Y-81305212D01*
X104457032Y-81300000D01*
X104721512Y-81300000D01*
X104788551Y-81319685D01*
G37*
%TD.AperFunction*%
%TD*%
%TA.AperFunction,Conductor*%
%TO.N,GND*%
G36*
X141535677Y-104049685D02*
G01*
X141556319Y-104066319D01*
X142283681Y-104793681D01*
X142317166Y-104855004D01*
X142320000Y-104881362D01*
X142320000Y-114468638D01*
X142300315Y-114535677D01*
X142283681Y-114556319D01*
X141596319Y-115243681D01*
X141534996Y-115277166D01*
X141508638Y-115280000D01*
X130771362Y-115280000D01*
X130704323Y-115260315D01*
X130683681Y-115243681D01*
X130436319Y-114996319D01*
X130402834Y-114934996D01*
X130400000Y-114908638D01*
X130400000Y-104551362D01*
X130419685Y-104484323D01*
X130436319Y-104463681D01*
X130833681Y-104066319D01*
X130895004Y-104032834D01*
X130921362Y-104030000D01*
X141468638Y-104030000D01*
X141535677Y-104049685D01*
G37*
%TD.AperFunction*%
%TD*%
M02*
