M48
; DRILL file KiCad 10.0.4 date 2026-07-10T01:27:08
; FORMAT={-:-/ absolute / metric / decimal}
; #@! TF.CreationDate,2026-07-10T01:27:08+03:00
; #@! TF.GenerationSoftware,Kicad,Pcbnew,10.0.4
; #@! TF.FileFunction,Plated,1,2,PTH
FMAT,2
METRIC
; #@! TA.AperFunction,Plated,PTH,ViaDrill
T1C0.300
; #@! TA.AperFunction,Plated,PTH,ComponentDrill
T2C0.800
; #@! TA.AperFunction,Plated,PTH,ComponentDrill
T3C1.400
; #@! TA.AperFunction,Plated,PTH,ComponentDrill
T4C4.300
%
G90
G05
T1
X119.756Y-99.094
X122.55Y-98.5
T2
X122.4Y-106.255
X122.4Y-108.255
X124.555Y-116.9
X126.555Y-116.9
T3
X101.57Y-82.775
X101.57Y-86.915
X105.71Y-82.775
X105.71Y-86.915
X113.15Y-113.56
X113.15Y-117.7
X114.14Y-82.775
X114.14Y-86.915
X117.29Y-113.56
X117.29Y-117.7
X118.28Y-82.775
X118.28Y-86.915
X126.67Y-82.795
X126.67Y-86.935
X130.81Y-82.795
X130.81Y-86.935
X139.34Y-82.775
X139.34Y-86.915
X143.48Y-82.775
X143.48Y-86.915
T4
X104.0Y-99.0
X141.5Y-99.0
M30
